<svg width="40" height="40" viewBox="0 0 40 40" fill="none" xmlns="http://www.w3.org/2000/svg">
<g clip-path="url(#clip0_22_4989)">
<path d="M5 35.0004L7.75 28.6671C5.6461 25.6805 4.70445 22.0288 5.10174 18.3973C5.49904 14.7657 7.20798 11.404 9.90785 8.94297C12.6077 6.48194 16.1129 5.09079 19.7656 5.0306C23.4184 4.97041 26.9675 6.24532 29.747 8.61606C32.5265 10.9868 34.3452 14.2904 34.862 17.9069C35.3787 21.5234 34.5579 25.2041 32.5535 28.2584C30.5492 31.3127 27.4991 33.5305 23.9757 34.4956C20.4522 35.4608 16.6977 35.1069 13.4167 33.5004L5 35.0004" stroke="#BC9426" stroke-width="2" stroke-linecap="round" stroke-linejoin="round"/>
<path d="M15 16.6667C15 16.8878 15.0878 17.0997 15.2441 17.256C15.4004 17.4123 15.6123 17.5001 15.8333 17.5001C16.0543 17.5001 16.2663 17.4123 16.4226 17.256C16.5789 17.0997 16.6667 16.8878 16.6667 16.6667V15.0001C16.6667 14.7791 16.5789 14.5671 16.4226 14.4108C16.2663 14.2545 16.0543 14.1667 15.8333 14.1667C15.6123 14.1667 15.4004 14.2545 15.2441 14.4108C15.0878 14.5671 15 14.7791 15 15.0001V16.6667ZM15 16.6667C15 18.8769 15.878 20.9965 17.4408 22.5593C19.0036 24.1221 21.1232 25.0001 23.3333 25.0001H25C25.221 25.0001 25.433 24.9123 25.5893 24.756C25.7455 24.5997 25.8333 24.3878 25.8333 24.1667C25.8333 23.9457 25.7455 23.7338 25.5893 23.5775C25.433 23.4212 25.221 23.3334 25 23.3334H23.3333C23.1123 23.3334 22.9004 23.4212 22.7441 23.5775C22.5878 23.7338 22.5 23.9457 22.5 24.1667C22.5 24.3878 22.5878 24.5997 22.7441 24.756C22.9004 24.9123 23.1123 25.0001 23.3333 25.0001" stroke="#BC9426" stroke-width="2" stroke-linecap="round" stroke-linejoin="round"/>
</g>
<defs>
<clipPath id="clip0_22_4989">
<rect width="40" height="40" fill="white"/>
</clipPath>
</defs>
</svg>
