<?xml version="1.0" encoding="UTF-8"?>
<svg id="Camada_1" data-name="Camada 1" xmlns="http://www.w3.org/2000/svg" version="1.1" viewBox="0 0 26.3 32.1">
  <defs>
    <style>
      .cls-1 {
        fill: none;
        stroke: #bc9426;
        stroke-miterlimit: 10;
      }
    </style>
  </defs>
  <path class="cls-1" d="M13,14.8c.8-.8,1.5-1.7,2-2.5.5-.9.8-1.6.8-2.2s-.3-1.4-.8-1.8c-.6-.4-1.3-.6-2.4-.6s-2.4.3-3.8,1c-1.4.6-2.7,1.5-4,2.6l-2.8-5.3c1.8-1.3,3.7-2.3,5.6-3,1.9-.7,3.9-1.1,6-1.1s3.6.3,5,.9c1.5.6,2.6,1.4,3.4,2.5.9,1.1,1.3,2.4,1.3,3.9s-.5,3.1-1.6,4.6c-1,1.5-2.3,3.1-3.9,4.7l-5.8,5.9h12s0,5.8,0,5.8H2.9v-4.8s10.2-10.5,10.2-10.5Z"/>
</svg>