<svg width="24" height="30" viewBox="0 0 24 30" fill="none" xmlns="http://www.w3.org/2000/svg">
<mask id="path-1-outside-1_299_550" maskUnits="userSpaceOnUse" x="-0.5" y="-1.17847" width="25" height="32" fill="black">
<rect fill="white" x="-0.5" y="-1.17847" width="25" height="32"/>
<path d="M15.78 12.3015C17.9933 12.6215 19.7933 13.4482 21.18 14.7815C22.5933 16.1149 23.3 17.8615 23.3 20.0215C23.3 21.7815 22.8333 23.3549 21.9 24.7415C20.9667 26.1282 19.6467 27.2082 17.94 27.9815C16.26 28.7549 14.26 29.1415 11.94 29.1415C9.88667 29.1415 7.86 28.8349 5.86 28.2215C3.88667 27.5815 2.22 26.7549 0.86 25.7415L3.58 20.6215C4.78 21.6082 6.03333 22.3549 7.34 22.8615C8.67333 23.3682 10.0067 23.6215 11.34 23.6215C12.38 23.6215 13.2467 23.4882 13.94 23.2215C14.66 22.9282 15.2067 22.5149 15.58 21.9815C15.9533 21.4482 16.14 20.8082 16.14 20.0615C16.14 18.9149 15.7267 18.0482 14.9 17.4615C14.0733 16.8749 12.8733 16.5815 11.3 16.5815H6.58V12.6215L15.42 4.06153L16.34 6.30153H2.34V0.781532H21.94V4.98153L11.94 14.2215L11.18 11.5015L15.78 12.3015Z"/>
</mask>
<path d="M15.78 12.3015L15.6087 13.2867L15.6228 13.2892L15.6369 13.2912L15.78 12.3015ZM21.18 14.7815L20.4869 15.5024L20.4938 15.5089L21.18 14.7815ZM21.9 24.7415L22.7296 25.2999L21.9 24.7415ZM17.94 27.9815L17.5273 27.0707L17.5219 27.0732L17.94 27.9815ZM5.86 28.2215L5.5515 29.1728L5.55913 29.1752L5.56681 29.1776L5.86 28.2215ZM0.86 25.7415L-0.0231157 25.2724L-0.425868 26.0305L0.262519 26.5434L0.86 25.7415ZM3.58 20.6215L4.21511 19.8491L3.27057 19.0725L2.69688 20.1524L3.58 20.6215ZM7.34 22.8615L6.97846 23.7939L6.98478 23.7963L7.34 22.8615ZM13.94 23.2215L14.299 24.1549L14.3082 24.1513L14.3173 24.1476L13.94 23.2215ZM15.58 21.9815L14.7608 21.4081L14.7608 21.4081L15.58 21.9815ZM14.9 17.4615L14.3213 18.277H14.3213L14.9 17.4615ZM6.58 16.5815H5.58V17.5815H6.58V16.5815ZM6.58 12.6215L5.88436 11.9031L5.58 12.1979V12.6215H6.58ZM15.42 4.06153L16.345 3.68161L15.7844 2.31666L14.7244 3.34314L15.42 4.06153ZM16.34 6.30153V7.30153H17.8318L17.265 5.92161L16.34 6.30153ZM2.34 6.30153H1.34V7.30153H2.34V6.30153ZM2.34 0.781532V-0.218468H1.34V0.781532H2.34ZM21.94 0.781532H22.94V-0.218468H21.94V0.781532ZM21.94 4.98153L22.6186 5.716L22.94 5.41907V4.98153H21.94ZM11.94 14.2215L10.9769 14.4906L11.4171 16.0662L12.6186 14.956L11.94 14.2215ZM11.18 11.5015L11.3513 10.5163L9.79058 10.2449L10.2169 11.7706L11.18 11.5015ZM15.6369 13.2912C17.678 13.5863 19.2744 14.3365 20.4869 15.5024L21.8731 14.0607C20.3122 12.5599 18.3086 11.6567 15.9231 11.3118L15.6369 13.2912ZM20.4938 15.5089C21.6834 16.6312 22.3 18.1029 22.3 20.0215H24.3C24.3 17.6202 23.5033 15.5985 21.8662 14.0541L20.4938 15.5089ZM22.3 20.0215C22.3 21.5937 21.8866 22.9705 21.0704 24.1832L22.7296 25.2999C23.78 23.7392 24.3 21.9694 24.3 20.0215H22.3ZM21.0704 24.1832C20.2528 25.3979 19.086 26.3644 17.5273 27.0707L18.3527 28.8924C20.2073 28.052 21.6805 26.8585 22.7296 25.2999L21.0704 24.1832ZM17.5219 27.0732C16.0019 27.7728 14.1513 28.1415 11.94 28.1415V30.1415C14.3687 30.1415 16.5181 29.7369 18.3581 28.8899L17.5219 27.0732ZM11.94 28.1415C9.98791 28.1415 8.05999 27.8502 6.15319 27.2655L5.56681 29.1776C7.66001 29.8195 9.78542 30.1415 11.94 30.1415V28.1415ZM6.1685 27.2703C4.27667 26.6567 2.71292 25.8751 1.45748 24.9396L0.262519 26.5434C1.72708 27.6347 3.49667 28.5063 5.5515 29.1728L6.1685 27.2703ZM1.74312 26.2107L4.46312 21.0907L2.69688 20.1524L-0.0231157 25.2724L1.74312 26.2107ZM2.94489 21.394C4.21817 22.4409 5.56256 23.2449 6.97847 23.7939L7.70153 21.9292C6.50411 21.4649 5.34183 20.7755 4.21511 19.8491L2.94489 21.394ZM6.98478 23.7963C8.42361 24.3431 9.87704 24.6215 11.34 24.6215V22.6215C10.1363 22.6215 8.92306 22.3933 7.69522 21.9268L6.98478 23.7963ZM11.34 24.6215C12.4573 24.6215 13.4552 24.4794 14.299 24.1549L13.581 22.2882C13.0381 22.497 12.3027 22.6215 11.34 22.6215V24.6215ZM14.3173 24.1476C15.1804 23.796 15.8957 23.2743 16.3992 22.555L14.7608 21.4081C14.5176 21.7554 14.1396 22.0604 13.5627 22.2954L14.3173 24.1476ZM16.3992 22.555C16.9069 21.8297 17.14 20.9822 17.14 20.0615H15.14C15.14 20.6342 14.9997 21.0667 14.7608 21.4081L16.3992 22.555ZM17.14 20.0615C17.14 18.64 16.6074 17.447 15.4787 16.646L14.3213 18.277C14.846 18.6494 15.14 19.1897 15.14 20.0615H17.14ZM15.4787 16.646C14.4129 15.8896 12.974 15.5815 11.3 15.5815V17.5815C12.7726 17.5815 13.7337 17.8601 14.3213 18.277L15.4787 16.646ZM11.3 15.5815H6.58V17.5815H11.3V15.5815ZM7.58 16.5815V12.6215H5.58V16.5815H7.58ZM7.27564 13.3399L16.1156 4.77993L14.7244 3.34314L5.88436 11.9031L7.27564 13.3399ZM14.495 4.44145L15.415 6.68145L17.265 5.92161L16.345 3.68161L14.495 4.44145ZM16.34 5.30153H2.34V7.30153H16.34V5.30153ZM3.34 6.30153V0.781532H1.34V6.30153H3.34ZM2.34 1.78153H21.94V-0.218468H2.34V1.78153ZM20.94 0.781532V4.98153H22.94V0.781532H20.94ZM21.2614 4.24707L11.2614 13.4871L12.6186 14.956L22.6186 5.716L21.2614 4.24707ZM12.9031 13.9524L12.1431 11.2324L10.2169 11.7706L10.9769 14.4906L12.9031 13.9524ZM11.0087 12.4867L15.6087 13.2867L15.9513 11.3163L11.3513 10.5163L11.0087 12.4867Z" fill="#BC9426" mask="url(#path-1-outside-1_299_550)"/>
</svg>
