<svg width="23" height="29" viewBox="0 0 23 29" fill="none" xmlns="http://www.w3.org/2000/svg">
<mask id="path-1-outside-1_343_897" maskUnits="userSpaceOnUse" x="-1.5" y="-1" width="25" height="31" fill="black">
<rect fill="white" x="-1.5" y="-1" width="25" height="31"/>
<path d="M11.18 13.72C11.98 12.8933 12.6333 12.0667 13.14 11.24C13.6467 10.3867 13.9 9.65333 13.9 9.04C13.9 8.26667 13.62 7.66667 13.06 7.24C12.5 6.81333 11.7133 6.6 10.7 6.6C9.55333 6.6 8.3 6.92 6.94 7.56C5.58 8.2 4.26 9.05333 2.98 10.12L0.18 4.84C1.99333 3.53333 3.87333 2.52 5.82 1.8C7.76667 1.05333 9.76667 0.68 11.82 0.68C13.7133 0.68 15.3933 0.986666 16.86 1.6C18.3267 2.18666 19.4733 3.02666 20.3 4.12C21.1533 5.21333 21.58 6.50667 21.58 8C21.58 9.52 21.06 11.0667 20.02 12.64C19.0067 14.1867 17.7133 15.7467 16.14 17.32L8.14 25.44L7.18 23.2H22.38V29H1.02L0.98 24.24L11.18 13.72Z"/>
</mask>
<path d="M11.18 13.72L11.8979 14.4161L11.8986 14.4154L11.18 13.72ZM13.14 11.24L13.9927 11.7626L13.9999 11.7505L13.14 11.24ZM13.06 7.24L13.666 6.44457L13.666 6.44457L13.06 7.24ZM6.94 7.56L6.5142 6.65518H6.5142L6.94 7.56ZM2.98 10.12L2.09654 10.5885L2.67373 11.6769L3.62018 10.8882L2.98 10.12ZM0.18 4.84L-0.404619 4.02869L-1.11188 4.53834L-0.703462 5.3085L0.18 4.84ZM5.82 1.8L6.16692 2.73797L6.17812 2.73367L5.82 1.8ZM16.86 1.6L16.4742 2.52258L16.4814 2.52558L16.4886 2.52847L16.86 1.6ZM20.3 4.12L19.5023 4.72311L19.507 4.72922L19.5117 4.73527L20.3 4.12ZM20.02 12.64L19.1858 12.0886L19.1835 12.092L20.02 12.64ZM16.14 17.32L15.4329 16.6129L15.4276 16.6182L16.14 17.32ZM8.14 25.44L7.22086 25.8339L7.80738 27.2025L8.85235 26.1418L8.14 25.44ZM7.18 23.2V22.2H5.66346L6.26086 23.5939L7.18 23.2ZM22.38 23.2H23.38V22.2H22.38V23.2ZM22.38 29V30H23.38V29H22.38ZM1.02 29L0.0200354 29.0084L0.0283682 30H1.02V29ZM0.98 24.24L0.262058 23.5439L-0.0234107 23.8383L-0.0199647 24.2484L0.98 24.24ZM11.8986 14.4154C12.7403 13.5456 13.4414 12.6618 13.9926 11.7626L12.2874 10.7174C11.8252 11.4715 11.2197 12.241 10.4614 13.0246L11.8986 14.4154ZM13.9999 11.7505C14.5472 10.8287 14.9 9.91188 14.9 9.04H12.9C12.9 9.39478 12.7461 9.94468 12.2801 10.7295L13.9999 11.7505ZM14.9 9.04C14.9 7.98995 14.5011 7.08083 13.666 6.44457L12.454 8.03543C12.7389 8.2525 12.9 8.54338 12.9 9.04H14.9ZM13.666 6.44457C12.8701 5.8381 11.8392 5.6 10.7 5.6V7.6C11.5875 7.6 12.1299 7.78856 12.454 8.03543L13.666 6.44457ZM10.7 5.6C9.36783 5.6 7.96775 5.97116 6.5142 6.65518L7.3658 8.46482C8.63225 7.86884 9.73884 7.6 10.7 7.6V5.6ZM6.5142 6.65518C5.06941 7.33509 3.67819 8.23647 2.33982 9.35178L3.62018 10.8882C4.84181 9.8702 6.09059 9.06491 7.3658 8.46482L6.5142 6.65518ZM3.86346 9.6515L1.06346 4.3715L-0.703462 5.3085L2.09654 10.5885L3.86346 9.6515ZM0.764619 5.65131C2.51037 4.39334 4.31105 3.42431 6.1669 2.7379L5.4731 0.862096C3.43562 1.61568 1.47629 2.67333 -0.404619 4.02869L0.764619 5.65131ZM6.17812 2.73367C8.01228 2.03016 9.89101 1.68 11.82 1.68V-0.32C9.64233 -0.32 7.52105 0.0765041 5.46188 0.866325L6.17812 2.73367ZM11.82 1.68C13.6057 1.68 15.1507 1.96913 16.4742 2.52258L17.2458 0.677417C15.636 0.00420624 13.821 -0.32 11.82 -0.32V1.68ZM16.4886 2.52847C17.8124 3.05801 18.8014 3.796 19.5023 4.72311L21.0977 3.51689C20.1453 2.25733 18.8409 1.31532 17.2314 0.671521L16.4886 2.52847ZM19.5117 4.73527C20.217 5.63898 20.58 6.71137 20.58 8H22.58C22.58 6.30196 22.0897 4.78769 21.0883 3.50473L19.5117 4.73527ZM20.58 8C20.58 9.28137 20.1438 10.6393 19.1858 12.0886L20.8542 13.1914C21.9762 11.494 22.58 9.75863 22.58 8H20.58ZM19.1835 12.092C18.2144 13.5712 16.9672 15.0786 15.4329 16.6129L16.8471 18.0271C18.4595 16.4147 19.7989 14.8022 20.8565 13.188L19.1835 12.092ZM15.4276 16.6182L7.42765 24.7382L8.85235 26.1418L16.8524 18.0218L15.4276 16.6182ZM9.05914 25.0461L8.09914 22.8061L6.26086 23.5939L7.22086 25.8339L9.05914 25.0461ZM7.18 24.2H22.38V22.2H7.18V24.2ZM21.38 23.2V29H23.38V23.2H21.38ZM22.38 28H1.02V30H22.38V28ZM2.01996 28.9916L1.97996 24.2316L-0.0199647 24.2484L0.0200354 29.0084L2.01996 28.9916ZM1.69794 24.9361L11.8979 14.4161L10.4621 13.0239L0.262058 23.5439L1.69794 24.9361Z" fill="#BC9426" mask="url(#path-1-outside-1_343_897)"/>
</svg>
