<?xml version="1.0" encoding="UTF-8"?>
<svg id="Camada_1" data-name="Camada 1" xmlns="http://www.w3.org/2000/svg" version="1.1" viewBox="0 0 26.5 32.4">
  <defs>
    <style>
      .cls-1 {
        fill: none;
        stroke: #bc9426;
        stroke-miterlimit: 10;
      }
    </style>
  </defs>
  <path class="cls-1" d="M17.4,13.8c2.2.3,4,1.1,5.4,2.5,1.4,1.3,2.1,3.1,2.1,5.2s-.5,3.3-1.4,4.7c-.9,1.4-2.3,2.5-4,3.2-1.7.8-3.7,1.2-6,1.2s-4.1-.3-6.1-.9c-2-.6-3.6-1.5-5-2.5l2.7-5.1c1.2,1,2.5,1.7,3.8,2.2,1.3.5,2.7.8,4,.8s1.9-.1,2.6-.4c.7-.3,1.3-.7,1.6-1.2.4-.5.6-1.2.6-1.9,0-1.1-.4-2-1.2-2.6-.8-.6-2-.9-3.6-.9h-4.7v-4l6.5-6.3H3.9V2.3h19.6v4.2l-7.6,7.1,1.5.3Z"/>
</svg>