<svg width="24" height="29" viewBox="0 0 24 29" fill="none" xmlns="http://www.w3.org/2000/svg">
<mask id="path-1-outside-1_343_911" maskUnits="userSpaceOnUse" x="-1.5" y="-1" width="26" height="31" fill="black">
<rect fill="white" x="-1.5" y="-1" width="26" height="31"/>
<path d="M0.46 22.92V18.04L8.42 0.959999H15.38L6.58 20.28L4.7 17.44H23.46V22.92H0.46ZM13.14 11.44H19.86V29H13.14V11.44Z"/>
</mask>
<path d="M0.46 22.92H-0.54V23.92H0.46V22.92ZM0.46 18.04L-0.4464 17.6176L-0.54 17.8184V18.04H0.46ZM8.42 0.959999V-0.0400014H7.78278L7.5136 0.537578L8.42 0.959999ZM15.38 0.959999L16.29 1.37451L16.9343 -0.0400014H15.38V0.959999ZM6.58 20.28L5.74615 20.832L6.74212 22.3365L7.49004 20.6945L6.58 20.28ZM4.7 17.44V16.44H2.83878L3.86615 17.992L4.7 17.44ZM23.46 17.44H24.46V16.44H23.46V17.44ZM23.46 22.92V23.92H24.46V22.92H23.46ZM13.14 11.44V10.44H12.14V11.44H13.14ZM19.86 11.44H20.86V10.44H19.86V11.44ZM19.86 29V30H20.86V29H19.86ZM13.14 29H12.14V30H13.14V29ZM1.46 22.92V18.04H-0.54V22.92H1.46ZM1.3664 18.4624L9.3264 1.38242L7.5136 0.537578L-0.4464 17.6176L1.3664 18.4624ZM8.42 1.96H15.38V-0.0400014H8.42V1.96ZM14.47 0.545486L5.66996 19.8655L7.49004 20.6945L16.29 1.37451L14.47 0.545486ZM7.41385 19.728L5.53385 16.888L3.86615 17.992L5.74615 20.832L7.41385 19.728ZM4.7 18.44H23.46V16.44H4.7V18.44ZM22.46 17.44V22.92H24.46V17.44H22.46ZM23.46 21.92H0.46V23.92H23.46V21.92ZM13.14 12.44H19.86V10.44H13.14V12.44ZM18.86 11.44V29H20.86V11.44H18.86ZM19.86 28H13.14V30H19.86V28ZM14.14 29V11.44H12.14V29H14.14Z" fill="#BC9426" mask="url(#path-1-outside-1_343_911)"/>
</svg>
