<svg width="40" height="40" viewBox="0 0 40 40" fill="none" xmlns="http://www.w3.org/2000/svg">
<g clip-path="url(#clip0_22_4966)">
<path d="M30 6.66675H9.99999C8.15904 6.66675 6.66666 8.15913 6.66666 10.0001V30.0001C6.66666 31.841 8.15904 33.3334 9.99999 33.3334H30C31.8409 33.3334 33.3333 31.841 33.3333 30.0001V10.0001C33.3333 8.15913 31.8409 6.66675 30 6.66675Z" stroke="#BC9426" stroke-width="2" stroke-linecap="round" stroke-linejoin="round"/>
<path d="M13.3333 18.3333V26.6666" stroke="#BC9426" stroke-width="2" stroke-linecap="round" stroke-linejoin="round"/>
<path d="M13.3333 13.3333V13.3499" stroke="#BC9426" stroke-width="2" stroke-linecap="round" stroke-linejoin="round"/>
<path d="M20 26.6666V18.3333" stroke="#BC9426" stroke-width="2" stroke-linecap="round" stroke-linejoin="round"/>
<path d="M26.6667 26.6666V21.6666C26.6667 20.7825 26.3155 19.9347 25.6904 19.3096C25.0652 18.6844 24.2174 18.3333 23.3333 18.3333C22.4493 18.3333 21.6014 18.6844 20.9763 19.3096C20.3512 19.9347 20 20.7825 20 21.6666" stroke="#BC9426" stroke-width="2" stroke-linecap="round" stroke-linejoin="round"/>
</g>
<defs>
<clipPath id="clip0_22_4966">
<rect width="40" height="40" fill="white"/>
</clipPath>
</defs>
</svg>
