<svg width="24" height="30" viewBox="0 0 24 30" fill="none" xmlns="http://www.w3.org/2000/svg">
<mask id="path-1-outside-1_343_904" maskUnits="userSpaceOnUse" x="-0.5" y="-1" width="25" height="32" fill="black">
<rect fill="white" x="-0.5" y="-1" width="25" height="32"/>
<path d="M15.78 12.48C17.9933 12.8 19.7933 13.6267 21.18 14.96C22.5933 16.2933 23.3 18.04 23.3 20.2C23.3 21.96 22.8333 23.5333 21.9 24.92C20.9667 26.3067 19.6467 27.3867 17.94 28.16C16.26 28.9333 14.26 29.32 11.94 29.32C9.88667 29.32 7.86 29.0133 5.86 28.4C3.88667 27.76 2.22 26.9333 0.86 25.92L3.58 20.8C4.78 21.7867 6.03333 22.5333 7.34 23.04C8.67333 23.5467 10.0067 23.8 11.34 23.8C12.38 23.8 13.2467 23.6667 13.94 23.4C14.66 23.1067 15.2067 22.6933 15.58 22.16C15.9533 21.6267 16.14 20.9867 16.14 20.24C16.14 19.0933 15.7267 18.2267 14.9 17.64C14.0733 17.0533 12.8733 16.76 11.3 16.76H6.58V12.8L15.42 4.24L16.34 6.48H2.34V0.959999H21.94V5.16L11.94 14.4L11.18 11.68L15.78 12.48Z"/>
</mask>
<path d="M15.78 12.48L15.6087 13.4652L15.6228 13.4677L15.6369 13.4697L15.78 12.48ZM21.18 14.96L20.4869 15.6809L20.4938 15.6874L21.18 14.96ZM21.9 24.92L22.7296 25.4784L21.9 24.92ZM17.94 28.16L17.5273 27.2491L17.5219 27.2516L17.94 28.16ZM5.86 28.4L5.5515 29.3512L5.55913 29.3537L5.56681 29.3561L5.86 28.4ZM0.86 25.92L-0.0231157 25.4508L-0.425868 26.209L0.262519 26.7219L0.86 25.92ZM3.58 20.8L4.21511 20.0276L3.27057 19.251L2.69688 20.3308L3.58 20.8ZM7.34 23.04L6.97846 23.9724L6.98478 23.9748L7.34 23.04ZM13.94 23.4L14.299 24.3333L14.3082 24.3298L14.3173 24.3261L13.94 23.4ZM15.58 22.16L14.7608 21.5865L14.7608 21.5865L15.58 22.16ZM14.9 17.64L14.3213 18.4555H14.3213L14.9 17.64ZM6.58 16.76H5.58V17.76H6.58V16.76ZM6.58 12.8L5.88436 12.0816L5.58 12.3763V12.8H6.58ZM15.42 4.24L16.345 3.86008L15.7844 2.49513L14.7244 3.52161L15.42 4.24ZM16.34 6.48V7.48H17.8318L17.265 6.10008L16.34 6.48ZM2.34 6.48H1.34V7.48H2.34V6.48ZM2.34 0.959999V-0.0400014H1.34V0.959999H2.34ZM21.94 0.959999H22.94V-0.0400014H21.94V0.959999ZM21.94 5.16L22.6186 5.89446L22.94 5.59753V5.16H21.94ZM11.94 14.4L10.9769 14.6691L11.4171 16.2447L12.6186 15.1345L11.94 14.4ZM11.18 11.68L11.3513 10.6948L9.79058 10.4233L10.2169 11.9491L11.18 11.68ZM15.6369 13.4697C17.678 13.7648 19.2744 14.515 20.4869 15.6808L21.8731 14.2392C20.3122 12.7383 18.3086 11.8352 15.9231 11.4903L15.6369 13.4697ZM20.4938 15.6874C21.6834 16.8097 22.3 18.2813 22.3 20.2H24.3C24.3 17.7987 23.5033 15.777 21.8662 14.2326L20.4938 15.6874ZM22.3 20.2C22.3 21.7722 21.8866 23.149 21.0704 24.3616L22.7296 25.4784C23.78 23.9177 24.3 22.1478 24.3 20.2H22.3ZM21.0704 24.3616C20.2528 25.5763 19.086 26.5429 17.5273 27.2491L18.3527 29.0709C20.2073 28.2305 21.6805 27.037 22.7296 25.4784L21.0704 24.3616ZM17.5219 27.2516C16.0019 27.9513 14.1513 28.32 11.94 28.32V30.32C14.3687 30.32 16.5181 29.9154 18.3581 29.0684L17.5219 27.2516ZM11.94 28.32C9.98791 28.32 8.05999 28.0287 6.15319 27.4439L5.56681 29.3561C7.66001 29.998 9.78542 30.32 11.94 30.32V28.32ZM6.1685 27.4488C4.27667 26.8352 2.71292 26.0535 1.45748 25.1181L0.262519 26.7219C1.72708 27.8131 3.49667 28.6848 5.5515 29.3512L6.1685 27.4488ZM1.74312 26.3892L4.46312 21.2692L2.69688 20.3308L-0.0231157 25.4508L1.74312 26.3892ZM2.94489 21.5724C4.21817 22.6193 5.56256 23.4233 6.97847 23.9724L7.70153 22.1076C6.50411 21.6433 5.34183 20.954 4.21511 20.0276L2.94489 21.5724ZM6.98478 23.9748C8.42361 24.5215 9.87704 24.8 11.34 24.8V22.8C10.1363 22.8 8.92306 22.5718 7.69522 22.1052L6.98478 23.9748ZM11.34 24.8C12.4573 24.8 13.4552 24.6579 14.299 24.3333L13.581 22.4667C13.0381 22.6755 12.3027 22.8 11.34 22.8V24.8ZM14.3173 24.3261C15.1804 23.9745 15.8957 23.4528 16.3992 22.7335L14.7608 21.5865C14.5176 21.9339 14.1396 22.2389 13.5627 22.4739L14.3173 24.3261ZM16.3992 22.7335C16.9069 22.0082 17.14 21.1607 17.14 20.24H15.14C15.14 20.8127 14.9997 21.2451 14.7608 21.5865L16.3992 22.7335ZM17.14 20.24C17.14 18.8185 16.6074 17.6254 15.4787 16.8245L14.3213 18.4555C14.846 18.8279 15.14 19.3682 15.14 20.24H17.14ZM15.4787 16.8245C14.4129 16.0681 12.974 15.76 11.3 15.76V17.76C12.7726 17.76 13.7337 18.0386 14.3213 18.4555L15.4787 16.8245ZM11.3 15.76H6.58V17.76H11.3V15.76ZM7.58 16.76V12.8H5.58V16.76H7.58ZM7.27564 13.5184L16.1156 4.95839L14.7244 3.52161L5.88436 12.0816L7.27564 13.5184ZM14.495 4.61992L15.415 6.85992L17.265 6.10008L16.345 3.86008L14.495 4.61992ZM16.34 5.48H2.34V7.48H16.34V5.48ZM3.34 6.48V0.959999H1.34V6.48H3.34ZM2.34 1.96H21.94V-0.0400014H2.34V1.96ZM20.94 0.959999V5.16H22.94V0.959999H20.94ZM21.2614 4.42553L11.2614 13.6655L12.6186 15.1345L22.6186 5.89446L21.2614 4.42553ZM12.9031 14.1309L12.1431 11.4109L10.2169 11.9491L10.9769 14.6691L12.9031 14.1309ZM11.0087 12.6652L15.6087 13.4652L15.9513 11.4948L11.3513 10.6948L11.0087 12.6652Z" fill="#BC9426" mask="url(#path-1-outside-1_343_904)"/>
</svg>
