<svg width="24" height="29" viewBox="0 0 24 29" fill="none" xmlns="http://www.w3.org/2000/svg">
<mask id="path-1-outside-1_299_551" maskUnits="userSpaceOnUse" x="-1.5" y="-1.17847" width="26" height="31" fill="black">
<rect fill="white" x="-1.5" y="-1.17847" width="26" height="31"/>
<path d="M0.46 22.7415V17.8615L8.42 0.781532H15.38L6.58 20.1015L4.7 17.2615H23.46V22.7415H0.46ZM13.14 11.2615H19.86V28.8215H13.14V11.2615Z"/>
</mask>
<path d="M0.46 22.7415H-0.54V23.7415H0.46V22.7415ZM0.46 17.8615L-0.4464 17.4391L-0.54 17.64V17.8615H0.46ZM8.42 0.781532V-0.218468H7.78278L7.5136 0.359111L8.42 0.781532ZM15.38 0.781532L16.29 1.19604L16.9343 -0.218468H15.38V0.781532ZM6.58 20.1015L5.74615 20.6535L6.74212 22.1581L7.49004 20.516L6.58 20.1015ZM4.7 17.2615V16.2615H2.83878L3.86615 17.8135L4.7 17.2615ZM23.46 17.2615H24.46V16.2615H23.46V17.2615ZM23.46 22.7415V23.7415H24.46V22.7415H23.46ZM13.14 11.2615V10.2615H12.14V11.2615H13.14ZM19.86 11.2615H20.86V10.2615H19.86V11.2615ZM19.86 28.8215V29.8215H20.86V28.8215H19.86ZM13.14 28.8215H12.14V29.8215H13.14V28.8215ZM1.46 22.7415V17.8615H-0.54V22.7415H1.46ZM1.3664 18.284L9.3264 1.20395L7.5136 0.359111L-0.4464 17.4391L1.3664 18.284ZM8.42 1.78153H15.38V-0.218468H8.42V1.78153ZM14.47 0.367019L5.66996 19.687L7.49004 20.516L16.29 1.19604L14.47 0.367019ZM7.41385 19.5495L5.53385 16.7095L3.86615 17.8135L5.74615 20.6535L7.41385 19.5495ZM4.7 18.2615H23.46V16.2615H4.7V18.2615ZM22.46 17.2615V22.7415H24.46V17.2615H22.46ZM23.46 21.7415H0.46V23.7415H23.46V21.7415ZM13.14 12.2615H19.86V10.2615H13.14V12.2615ZM18.86 11.2615V28.8215H20.86V11.2615H18.86ZM19.86 27.8215H13.14V29.8215H19.86V27.8215ZM14.14 28.8215V11.2615H12.14V28.8215H14.14Z" fill="#BC9426" mask="url(#path-1-outside-1_299_551)"/>
</svg>
