<svg width="23" height="29" viewBox="0 0 23 29" fill="none" xmlns="http://www.w3.org/2000/svg">
<mask id="path-1-outside-1_299_549" maskUnits="userSpaceOnUse" x="-1.5" y="-1.17847" width="25" height="31" fill="black">
<rect fill="white" x="-1.5" y="-1.17847" width="25" height="31"/>
<path d="M11.18 13.5415C11.98 12.7149 12.6333 11.8882 13.14 11.0615C13.6467 10.2082 13.9 9.47487 13.9 8.86153C13.9 8.0882 13.62 7.4882 13.06 7.06153C12.5 6.63487 11.7133 6.42153 10.7 6.42153C9.55333 6.42153 8.3 6.74153 6.94 7.38153C5.58 8.02153 4.26 8.87487 2.98 9.94153L0.18 4.66153C1.99333 3.35486 3.87333 2.34153 5.82 1.62153C7.76667 0.874866 9.76667 0.501533 11.82 0.501533C13.7133 0.501533 15.3933 0.808199 16.86 1.42153C18.3267 2.0082 19.4733 2.8482 20.3 3.94153C21.1533 5.03487 21.58 6.3282 21.58 7.82153C21.58 9.34153 21.06 10.8882 20.02 12.4615C19.0067 14.0082 17.7133 15.5682 16.14 17.1415L8.14 25.2615L7.18 23.0215H22.38V28.8215H1.02L0.98 24.0615L11.18 13.5415Z"/>
</mask>
<path d="M11.18 13.5415L11.8979 14.2376L11.8986 14.237L11.18 13.5415ZM13.14 11.0615L13.9927 11.5841L13.9999 11.5721L13.14 11.0615ZM13.06 7.06153L13.666 6.2661L13.666 6.2661L13.06 7.06153ZM6.94 7.38153L6.5142 6.47671H6.5142L6.94 7.38153ZM2.98 9.94153L2.09654 10.41L2.67373 11.4985L3.62018 10.7098L2.98 9.94153ZM0.18 4.66153L-0.404619 3.85022L-1.11188 4.35987L-0.703462 5.13003L0.18 4.66153ZM5.82 1.62153L6.16692 2.5595L6.17812 2.55521L5.82 1.62153ZM16.86 1.42153L16.4742 2.34411L16.4814 2.34712L16.4886 2.35001L16.86 1.42153ZM20.3 3.94153L19.5023 4.54464L19.507 4.55076L19.5117 4.5568L20.3 3.94153ZM20.02 12.4615L19.1858 11.9101L19.1835 11.9135L20.02 12.4615ZM16.14 17.1415L15.4329 16.4344L15.4276 16.4397L16.14 17.1415ZM8.14 25.2615L7.22086 25.6555L7.80738 27.024L8.85235 25.9634L8.14 25.2615ZM7.18 23.0215V22.0215H5.66346L6.26086 23.4155L7.18 23.0215ZM22.38 23.0215H23.38V22.0215H22.38V23.0215ZM22.38 28.8215V29.8215H23.38V28.8215H22.38ZM1.02 28.8215L0.0200354 28.8299L0.0283682 29.8215H1.02V28.8215ZM0.98 24.0615L0.262058 23.3654L-0.0234107 23.6599L-0.0199647 24.0699L0.98 24.0615ZM11.8986 14.237C12.7403 13.3672 13.4414 12.4834 13.9926 11.5841L12.2874 10.539C11.8252 11.293 11.2197 12.0626 10.4614 12.8461L11.8986 14.237ZM13.9999 11.5721C14.5472 10.6502 14.9 9.73342 14.9 8.86153H12.9C12.9 9.21632 12.7461 9.76621 12.2801 10.551L13.9999 11.5721ZM14.9 8.86153C14.9 7.81148 14.5011 6.90237 13.666 6.2661L12.454 7.85696C12.7389 8.07403 12.9 8.36492 12.9 8.86153H14.9ZM13.666 6.2661C12.8701 5.65964 11.8392 5.42153 10.7 5.42153V7.42153C11.5875 7.42153 12.1299 7.6101 12.454 7.85696L13.666 6.2661ZM10.7 5.42153C9.36783 5.42153 7.96775 5.79269 6.5142 6.47671L7.3658 8.28635C8.63225 7.69037 9.73884 7.42153 10.7 7.42153V5.42153ZM6.5142 6.47671C5.06941 7.15662 3.67819 8.058 2.33982 9.17331L3.62018 10.7098C4.84181 9.69173 6.09059 8.88645 7.3658 8.28635L6.5142 6.47671ZM3.86346 9.47303L1.06346 4.19303L-0.703462 5.13003L2.09654 10.41L3.86346 9.47303ZM0.764619 5.47284C2.51037 4.21487 4.31105 3.24585 6.1669 2.55944L5.4731 0.683629C3.43562 1.43722 1.47629 2.49486 -0.404619 3.85022L0.764619 5.47284ZM6.17812 2.55521C8.01228 1.8517 9.89101 1.50153 11.82 1.50153V-0.498467C9.64233 -0.498467 7.52105 -0.101963 5.46188 0.687858L6.17812 2.55521ZM11.82 1.50153C13.6057 1.50153 15.1507 1.79066 16.4742 2.34411L17.2458 0.49895C15.636 -0.174261 13.821 -0.498467 11.82 -0.498467V1.50153ZM16.4886 2.35001C17.8124 2.87954 18.8014 3.61754 19.5023 4.54464L21.0977 3.33842C20.1453 2.07886 18.8409 1.13686 17.2314 0.493054L16.4886 2.35001ZM19.5117 4.5568C20.217 5.46051 20.58 6.5329 20.58 7.82153H22.58C22.58 6.1235 22.0897 4.60922 21.0883 3.32626L19.5117 4.5568ZM20.58 7.82153C20.58 9.1029 20.1438 10.4608 19.1858 11.9101L20.8542 13.013C21.9762 11.3156 22.58 9.58016 22.58 7.82153H20.58ZM19.1835 11.9135C18.2144 13.3927 16.9672 14.9001 15.4329 16.4344L16.8471 17.8486C18.4595 16.2363 19.7989 14.6237 20.8565 13.0096L19.1835 11.9135ZM15.4276 16.4397L7.42765 24.5597L8.85235 25.9634L16.8524 17.8434L15.4276 16.4397ZM9.05914 24.8676L8.09914 22.6276L6.26086 23.4155L7.22086 25.6555L9.05914 24.8676ZM7.18 24.0215H22.38V22.0215H7.18V24.0215ZM21.38 23.0215V28.8215H23.38V23.0215H21.38ZM22.38 27.8215H1.02V29.8215H22.38V27.8215ZM2.01996 28.8131L1.97996 24.0531L-0.0199647 24.0699L0.0200354 28.8299L2.01996 28.8131ZM1.69794 24.7576L11.8979 14.2376L10.4621 12.8454L0.262058 23.3654L1.69794 24.7576Z" fill="#BC9426" mask="url(#path-1-outside-1_299_549)"/>
</svg>
