<svg width="14" height="29" viewBox="0 0 14 29" fill="none" xmlns="http://www.w3.org/2000/svg">
<mask id="path-1-outside-1_299_548" maskUnits="userSpaceOnUse" x="-0.5" y="-1.17847" width="16" height="31" fill="black">
<rect fill="white" x="-0.5" y="-1.17847" width="16" height="31"/>
<path d="M0.9 0.781532H13.62V28.8215H6.3V3.50153L9.5 6.70153H0.9V0.781532Z"/>
</mask>
<path d="M0.9 0.781532V-0.218468H-0.1V0.781532H0.9ZM13.62 0.781532H14.62V-0.218468H13.62V0.781532ZM13.62 28.8215V29.8215H14.62V28.8215H13.62ZM6.3 28.8215H5.3V29.8215H6.3V28.8215ZM6.3 3.50153L7.00711 2.79443L5.3 1.08732V3.50153H6.3ZM9.5 6.70153V7.70153H11.9142L10.2071 5.99442L9.5 6.70153ZM0.9 6.70153H-0.1V7.70153H0.9V6.70153ZM0.9 1.78153H13.62V-0.218468H0.9V1.78153ZM12.62 0.781532V28.8215H14.62V0.781532H12.62ZM13.62 27.8215H6.3V29.8215H13.62V27.8215ZM7.3 28.8215V3.50153H5.3V28.8215H7.3ZM5.59289 4.20864L8.79289 7.40864L10.2071 5.99442L7.00711 2.79443L5.59289 4.20864ZM9.5 5.70153H0.9V7.70153H9.5V5.70153ZM1.9 6.70153V0.781532H-0.1V6.70153H1.9Z" fill="#BC9426" mask="url(#path-1-outside-1_299_548)"/>
</svg>
