<svg width="132" height="16" viewBox="0 0 132 16" fill="none" xmlns="http://www.w3.org/2000/svg">
<path d="M9.6161 8.67758C9.6161 13.1012 11.1602 15.1459 14.436 15.1459C17.2945 15.1459 19.5063 13.3098 19.5063 8.82365C19.5063 4.37933 17.9414 2.37627 14.6654 2.37627C11.8069 2.37627 9.61584 4.17071 9.61584 8.67758H9.6161ZM16.5017 8.84451C16.5017 13.7271 15.5001 14.4157 14.4777 14.4157C13.4762 14.4157 12.5998 13.6228 12.5998 8.63603C12.5998 3.77447 13.6014 3.10652 14.6029 3.10652C15.6253 3.10652 16.5017 3.85767 16.5017 8.84451ZM20.0906 14.9164H27.4771V11.1814H26.8928L25.8704 14.0816H23.9925V3.41938L25.0775 3.16899V2.60563H20.174V3.16899L21.1755 3.41938V14.1026L20.0905 14.353L20.0906 14.9164ZM28.4576 2.60563V3.16899L29.4592 3.44023V14.1025L28.4576 14.3528V14.9162H33.1733V14.3528L32.2761 14.1025V9.26162H34.9886V14.1025L34.1539 14.3528V14.9162H38.807V14.3528L37.8054 14.1025V3.41925L38.7235 3.16886V2.6055H34.1538V3.16886L34.9885 3.41925V8.42689H32.276V3.41925L33.1733 3.16886V2.6055L28.4576 2.60563ZM39.5997 14.9164H42.7504V14.353L41.4776 14.1026L42.1662 11.1604H44.7952L45.7759 14.1026L44.67 14.353V14.9164H49.6359V14.353L48.7179 14.1026L45.2334 2.58492H43.4806L40.4968 14.1026L39.5996 14.353L39.5997 14.9164ZM42.3958 10.305L43.3556 6.42396L44.545 10.305H42.3958ZM61.9053 8.9487C61.9053 4.10785 60.0691 2.60544 57.0227 2.60544H52.2653V3.1688L53.246 3.41918V14.1024L52.2653 14.3528V14.9161H57.2312C59.6725 14.9161 61.905 13.3095 61.905 8.94868L61.9053 8.9487ZM56.981 14.0817H56.1882V3.44018H56.8976C58.2956 3.44018 59.0676 4.25393 59.0676 8.82361C59.0676 13.3096 58.3999 14.0817 56.981 14.0817ZM0.101992 0.894531V1.54136L1.37479 1.81264V13.9983L0.0602417 14.2695V14.9164H6.15306V14.2695L4.4838 13.9983V8.36466H6.27823L6.71642 10.2217H7.38413V5.69396H6.71642L6.27823 7.40495H4.4838V1.83375H6.77902L7.94749 5.0261H8.65693V0.894643L0.101992 0.894531Z" fill="#183C80"/>
<path d="M67.9454 14.0824H65.671V9.17892H67.1942L67.5698 10.8273H68.154V6.84193H67.5698L67.1942 8.34424H65.671V3.48269H67.5698L68.5714 6.19511H69.2182V2.64794H61.7273V3.19046L62.8541 3.44085V14.1031L61.7065 14.3535V14.9168H69.5936V11.328H68.9676L67.9452 14.0821L67.9454 14.0824ZM78.3781 0.70752C75.8743 0.70752 73.8921 2.31415 73.8711 4.83897C73.8503 8.99115 79.1502 9.03285 79.1502 12.3506C79.1502 13.2478 78.4616 14.0615 77.3766 14.0615C76.6463 14.0615 75.8534 13.9572 75.2692 13.6025L74.6432 10.8901H73.9129V14.6877C74.6432 14.9798 75.7282 15.1467 76.9592 15.1467C79.8177 15.1467 81.7373 13.0602 81.7373 10.5354C81.7373 6.02835 76.5417 6.32049 76.5417 3.25324C76.5417 2.4186 77.1885 1.77177 78.3778 1.77177C78.8995 1.77177 79.2542 1.83434 79.7758 1.9387L80.4644 4.73479H81.1321V0.937179C80.2766 0.770247 79.3378 0.70752 78.3781 0.70752ZM90.2089 8.2608H89.6873V1.87584H90.2507C91.3148 1.87584 91.7113 2.46008 91.7113 5.04747C91.7113 7.63481 91.1687 8.2608 90.2089 8.2608ZM90.981 9.22062C93.7771 9.22062 94.9871 7.57223 94.9871 5.06844C94.9871 1.83439 93.443 0.916275 91.1478 0.916275H85.3054V1.56311L86.5782 1.83435V13.999L85.2637 14.2702V14.9171H91.2731V14.2702L89.6873 13.999V9.22083L90.981 9.22062ZM97.0111 10.3265L97.9709 6.42477L99.1603 10.3265H97.0111ZM94.0899 14.9169H97.3659V14.3535L96.114 14.1031L96.8026 11.161H99.4108L100.371 14.1031L99.2647 14.3535V14.9169H104.356V14.3535L103.313 14.1031L99.849 2.60618H98.0963L95.0917 14.1031L94.0901 14.3535L94.0899 14.9169ZM103.834 2.64786V3.19038L104.836 3.44077V11.3696C104.836 14.2074 105.754 15.2923 108.487 15.2923C110.949 15.3131 112.118 14.2907 112.118 11.9122V3.44077L113.057 3.19038V2.64786H110.219V3.19038L111.262 3.44077V11.7454C111.262 13.4772 110.782 14.4161 109.176 14.4161C108.028 14.4161 107.652 13.6858 107.652 12.1209V3.44074L108.737 3.19035V2.64784L103.834 2.64786ZM113.975 14.9169H121.236V11.182H120.652L119.65 14.0822H117.856V3.44064L118.941 3.19027V2.64775H114.037V3.19027L115.059 3.44064V14.1029L113.974 14.3533V14.9166L113.975 14.9169ZM122.091 8.678C122.091 13.1016 123.635 15.1464 126.911 15.1464C129.749 15.1464 131.94 13.3102 131.94 8.82408C131.94 4.40047 130.375 2.39742 127.099 2.39742C124.261 2.39742 122.091 4.19185 122.091 8.678ZM128.956 8.86581C128.956 13.7274 127.934 14.416 126.932 14.416C125.931 14.416 125.075 13.6231 125.075 8.65705C125.075 3.79549 126.077 3.12754 127.078 3.12754C128.08 3.12754 128.956 3.8787 128.956 8.86553L128.956 8.86581ZM82.7401 12.6217C83.4078 12.6217 83.9503 13.2268 83.9503 13.9571C83.9503 14.6874 83.366 15.2925 82.6984 15.2925C82.0724 15.2925 81.4881 14.6874 81.4881 13.9571C81.4881 13.2268 82.1141 12.6217 82.7401 12.6217Z" fill="#183C80"/>
</svg>
