<svg width="110" height="36" viewBox="0 0 110 36" fill="none" xmlns="http://www.w3.org/2000/svg">
<mask id="mask0_22_4916" style="mask-type:luminance" maskUnits="userSpaceOnUse" x="0" y="0" width="110" height="36">
<path d="M0 0.30835H110V35.6917H0" fill="#183C80"/>
</mask>
<g mask="url(#mask0_22_4916)">
<path fill-rule="evenodd" clip-rule="evenodd" d="M71.1202 27.7096C66.5833 27.7096 62.9054 24.032 62.9054 19.4951C62.9054 14.958 66.5833 11.2802 71.1202 11.2802C75.6574 11.2802 79.335 14.958 79.335 19.4951C79.335 24.032 75.6574 27.7096 71.1202 27.7096ZM30.018 24.5869C30.9146 25.1625 31.3643 25.9128 31.3403 26.9783C31.312 28.2161 30.4961 29.5709 27.8236 29.5102C25.3478 29.4538 23.069 27.0682 22.1013 24.8403H15.642V28.7786H11.0846V10.3239L14.6446 10.3214C14.7084 10.3214 14.2114 11.8397 14.2635 13.3622C14.3479 15.8377 15.2487 18.2795 17.3582 19.7201C23.1252 23.6586 26.6419 22.4208 30.018 24.5869ZM71.1202 3.79702C68.0278 3.79702 65.1106 4.67256 62.6802 6.21634V4.02221H31.6214V5.8226C31.6214 5.8226 30.8619 5.06286 27.7954 4.13458C23.3545 2.79008 17.6958 3.90962 14.8542 9.90174V4.02221H7.62939e-05V10.3239H3.43235V28.7786H7.62939e-05V35.0806H21.6062V33.5895C24.0255 35.2212 26.7987 35.8146 30.2712 35.6713C36.4042 35.4181 39.5406 30.9881 39.4425 26.0779C39.3299 20.4516 33.1858 18.3416 30.8901 17.5539C28.0093 16.4284 25.2916 16.3725 23.266 14.4031C22.4343 13.5945 22.3657 12.7994 22.7035 12.0117C23.1732 10.9156 24.6576 10.1927 26.1638 10.3239C27.4581 10.4363 30.2147 11.8147 31.3964 15.1626H39.0485V10.3239H43.4373V24.4351V28.6209H40.0052V35.176H50.8646H54.775V32.8406V28.6209H54.3248H50.8646V24.3899V10.3239H55.4219V19.4951C55.4219 28.1643 62.4502 35.1934 71.1202 35.1934C79.7902 35.1934 86.8185 28.165 86.8185 19.4951C86.8185 10.8252 79.7902 3.79702 71.1202 3.79702Z" fill="#183C80"/>
</g>
<mask id="mask1_22_4916" style="mask-type:luminance" maskUnits="userSpaceOnUse" x="0" y="0" width="110" height="36">
<path d="M0 0.30835H110V35.6917H0V0.30835Z" fill="#183C80"/>
</mask>
<g mask="url(#mask1_22_4916)">
<path fill-rule="evenodd" clip-rule="evenodd" d="M110 15.5563V4.02195H100.801L103.22 0.30835H97.9308L95.5394 4.02195H84.6241V10.1549H87.9999V28.6945H84.6241V35.0803H110V23.6586H102.573V28.6945H95.5394V23.0958H100.379V16.0346H95.5394V10.1549H102.573V15.5563H110Z" fill="#183C80"/>
</g>
</svg>
