<svg width="108" height="33" viewBox="0 0 108 33" fill="none" xmlns="http://www.w3.org/2000/svg">
<path d="M12.428 2.82474H0V23.7237H4.57412V18.9802H12.428C17.346 18.9802 21.2354 15.6475 21.2354 10.9039C21.2354 6.16038 17.4211 2.82771 12.428 2.82771V2.82474ZM12.1622 14.8485H4.57412V7.06038H12.1622C14.6791 7.06038 16.5863 8.65543 16.5863 10.9366C16.5863 13.2178 14.7166 14.8485 12.1622 14.8485Z" fill="#183C80"/>
<path d="M33.4227 5.21585C27.2072 5.21585 23.1677 9.38021 23.1677 14.7059C23.1677 20.0317 27.2478 24.2317 33.4227 24.2317C39.5976 24.2317 43.5277 20.0287 43.5277 14.7059C43.5277 9.38318 39.5257 5.21585 33.4227 5.21585ZM33.4227 20.2456C29.9147 20.2456 27.5886 17.7832 27.5886 14.7386C27.5886 11.6941 29.8772 9.23169 33.4227 9.23169C36.9682 9.23169 39.1411 11.6584 39.1411 14.7386C39.1411 17.8188 36.8525 20.2456 33.4227 20.2456Z" fill="#183C80"/>
<path d="M56.0588 5.21583C53.5044 5.21583 51.294 6.30296 49.9214 8.04058H49.7682V5.72375L45.4598 7.57722V23.7238H49.8432V14.5604C49.8432 11.4445 52.0537 9.3089 54.952 9.3089C57.6596 9.3089 59.4511 11.1921 59.4511 14.0168V23.7238H63.8345V13.3634C63.8345 8.29306 60.783 5.21286 56.0557 5.21286L56.0588 5.21583Z" fill="#183C80"/>
<path d="M81.1587 0.956436L76.8316 2.82178V5.72376H71.8791V0L67.552 1.86535V5.72376H65.7636V9.95644H67.552V16.3396C67.552 25.5238 75.4184 32.997 85.0856 32.997H85.564V28.8861H85.0856C77.8039 28.8861 71.8791 23.2574 71.8791 16.3396V9.95644H76.8316V15.9178C76.8316 20.4921 80.7491 24.2139 85.564 24.2139V20.103C83.1347 20.103 81.1556 18.2257 81.1556 15.9149V9.95347H85.564V5.72079H81.1556V0.956436H81.1587Z" fill="#183C80"/>
<path d="M97.3322 5.21583C91.4981 5.21583 87.4962 9.4188 87.4962 14.7416C87.4962 20.0643 91.1167 24.2317 97.3322 24.2317C101.794 24.2317 105.493 21.9861 106.712 18.0742H102.175C101.412 19.5237 99.5458 20.4297 97.4104 20.3911C94.4371 20.3198 92.3767 18.4723 92.0359 16.1525H107.021C107.594 9.95939 103.629 5.21286 97.3385 5.21286L97.3322 5.21583ZM92.1109 12.7485C92.6456 10.5386 94.6278 9.05345 97.2572 9.05345C99.8866 9.05345 101.909 10.503 102.482 12.7485H92.1109Z" fill="#183C80"/>
</svg>
