<svg width="138" height="30" viewBox="0 0 138 30" fill="none" xmlns="http://www.w3.org/2000/svg">
<path d="M136.591 6.64992C136.552 7.05433 136.49 7.45612 136.404 7.85314C136.309 8.24695 135.414 10.4641 135.349 10.8264C135.309 11.1824 135.29 11.5407 135.293 11.899C135.021 12.0176 134.396 12.4843 134.065 12.4843C133.733 12.4843 132.941 11.7228 132.598 11.638C132.598 10.7045 132.839 10.6262 132.755 10.1409C132.62 9.5816 132.424 9.0385 132.172 8.52111C132.077 8.28141 132.052 8.01935 132.101 7.7661C132.033 7.86542 131.985 7.9773 131.959 8.0953C131.935 8.21331 131.934 8.3351 131.955 8.45365C132.042 8.97041 132.457 9.74825 132.512 10.0855C132.569 10.4227 132.554 10.8177 132.424 10.9036C131.494 10.8028 130.595 10.5106 129.784 10.0452C129.157 9.68591 128.51 9.36264 127.847 9.07702C128.242 8.24485 128.739 7.46501 129.327 6.75545C129.814 6.16701 130.394 5.66243 131.045 5.26177C131.937 4.81278 132.934 4.61674 133.929 4.69497C134.537 4.76324 135.138 4.88186 135.726 5.04962C135.726 5.04962 136.302 4.57204 136.742 4.72325C136.615 5.05507 136.473 5.39557 136.473 5.39557L137.045 5.72847C136.873 6.02511 136.722 6.33213 136.589 6.64775L136.591 6.64992ZM110.91 15.1758C110.92 15.8837 111.172 16.5669 111.625 17.1111C111.625 17.1111 111.635 17.1221 111.64 17.1264C111.497 16.665 111.381 16.1956 111.293 15.7208V14.7797C111.407 14.1193 111.605 13.4758 111.881 12.8651C111.881 12.8651 111.881 12.8727 111.873 12.8727L111.843 12.8988C111.601 13.1349 111.398 13.4086 111.245 13.7093L111.21 13.7779C111.042 14.128 110.943 14.5074 110.918 14.8951C110.913 14.9713 110.906 15.0463 110.906 15.1225C110.906 15.1377 110.906 15.1551 110.906 15.1747L110.91 15.1758ZM126.535 10.1769C126.583 10.1491 126.624 10.1089 126.653 10.0605C126.733 9.9347 126.806 9.80388 126.87 9.66884C126.87 9.42189 126.349 9.45126 126.238 9.35878C126.127 9.26632 126.077 9.1412 125.904 9.06505L125.896 9.09116C125.896 9.13686 125.896 9.19995 125.896 9.25761C125.926 9.41838 125.941 9.58151 125.941 9.74499C125.945 9.95518 125.92 10.1649 125.867 10.3684C125.964 10.4044 126.059 10.4466 126.15 10.4946C126.258 10.3666 126.388 10.2591 126.535 10.1769ZM126.476 8.27851L124.447 6.00045L123.131 7.09813L123.181 7.25806C123.226 7.37 123.279 7.479 123.338 7.58443C123.403 7.69766 123.476 7.80666 123.555 7.91079C123.646 8.02905 123.744 8.14099 123.851 8.24587C123.865 8.2611 123.884 8.27415 123.897 8.28938C124.184 8.55972 124.522 8.77048 124.891 8.90949C125.108 8.98934 125.336 9.03344 125.566 9.04004L126.472 8.27851H126.476ZM125.49 4.51003V3.9106C125.494 3.87584 125.491 3.84056 125.48 3.80716C125.469 3.77375 125.452 3.74299 125.428 3.71695C125.35 3.67888 125.277 3.63059 125.211 3.57335C125.189 3.55594 125.166 3.5331 125.146 3.51678C125.006 3.54671 124.861 3.53028 124.731 3.47C124.658 3.4463 124.59 3.40943 124.53 3.36121C124.495 3.33059 124.466 3.29312 124.446 3.25106C124.425 3.20899 124.412 3.1632 124.41 3.11643C124.343 3.11643 124.277 3.10882 124.215 3.10121V3.49176C124.215 3.50699 124.223 3.52549 124.226 3.53963C124.264 3.66853 124.271 3.80436 124.247 3.93646C124.223 4.06857 124.17 4.19338 124.089 4.30116C124.003 4.42285 123.889 4.52242 123.757 4.59178C123.625 4.66115 123.478 4.69836 123.328 4.70041C123.313 4.81418 123.313 4.92933 123.328 5.0431C123.342 5.15189 123.45 5.4293 123.494 5.58705C123.591 5.8617 123.646 6.14913 123.658 6.43996L123.958 6.18757C123.893 5.94714 123.822 5.69692 123.755 5.44997C123.708 5.28025 123.66 5.11381 123.619 4.94845C123.786 4.91572 123.945 4.84863 124.085 4.75144C124.223 4.65425 124.342 4.52907 124.431 4.38383C124.601 4.44257 124.775 4.48839 124.952 4.52091H125.48L125.49 4.51003ZM126.251 3.73871C126.333 3.65821 126.314 3.45912 126.159 3.12405C126.104 3.05176 126.041 2.98476 125.972 2.92388C125.853 2.98263 125.804 2.98697 125.763 3.00764C125.73 3.06088 125.694 3.11178 125.653 3.15995C125.627 3.1915 125.556 3.17953 125.531 3.20238C125.49 3.30279 125.42 3.38878 125.33 3.44934C125.447 3.55684 125.582 3.64171 125.729 3.69955C125.828 3.73871 126.164 3.81486 126.248 3.73871H126.251ZM126.639 2.36578C126.993 2.16201 127.298 1.88402 127.534 1.55095C127.468 1.52868 127.404 1.50065 127.345 1.46718C127.102 1.32198 126.893 1.12513 126.735 0.890597C126.522 1.40345 126.185 1.85614 125.756 2.20913C125.777 2.25033 125.793 2.29329 125.806 2.3375C125.811 2.35097 125.814 2.3648 125.816 2.37884C125.836 2.49214 125.836 2.60823 125.816 2.72153C126.105 2.64011 126.381 2.52086 126.637 2.36687L126.639 2.36578ZM127.648 1.3584C127.648 1.3584 127.654 1.3584 127.656 1.3584C127.661 1.3534 127.666 1.34713 127.668 1.34012C127.671 1.33312 127.672 1.32558 127.671 1.31814C127.625 1.12734 127.515 0.957881 127.359 0.83729C127.274 0.753666 127.182 0.6786 127.082 0.613182C126.974 0.54682 126.889 0.519623 126.84 0.53703C126.834 0.539755 126.829 0.543037 126.824 0.546821C126.82 0.55381 126.816 0.56154 126.814 0.569667C126.804 0.595194 126.804 0.623557 126.814 0.649084C126.882 0.811606 126.984 0.956719 127.116 1.07336C127.334 1.29094 127.572 1.41823 127.647 1.36166L127.648 1.3584ZM125.522 2.24503C125.522 2.23959 125.008 2.28528 125.008 2.28528C125.008 2.28528 124.759 2.46152 124.727 2.61165C124.72 2.71742 124.72 2.82355 124.727 2.92931L125.528 2.94454C125.591 2.83829 125.624 2.71658 125.623 2.59278C125.622 2.46899 125.587 2.34791 125.521 2.24285L125.522 2.24503ZM124.954 3.33836C125.373 3.36882 125.35 3.12078 125.35 3.12078L124.625 3.10991C124.625 3.10991 124.532 3.30899 124.951 3.33401L124.954 3.33836ZM123.897 2.47566C123.832 2.40503 123.756 2.34678 123.67 2.30378C123.579 2.38537 123.458 2.50069 123.344 2.58772C123.344 2.58772 123.344 2.59533 123.331 2.59533C123.291 2.63215 123.246 2.66325 123.197 2.6878C123.116 2.60747 123.057 2.50732 123.027 2.39733C123.019 2.37198 123.014 2.34563 123.013 2.31901C123.009 2.28056 123.018 2.24206 123.037 2.20876C123.057 2.17546 123.086 2.14898 123.121 2.13297C123.208 2.10078 123.293 2.06262 123.374 2.01875C123.385 1.95743 123.412 1.90043 123.454 1.85447C123.417 1.76584 123.37 1.68186 123.314 1.60426L123.096 1.47589C123.012 1.43232 122.931 1.38289 122.852 1.32793C122.852 1.46609 122.865 1.54551 122.863 1.6543V1.68912C122.863 1.74568 122.863 1.80552 122.871 1.86317C122.871 1.97196 122.871 2.08075 122.871 2.18954H122.683C122.685 2.15333 122.685 2.11698 122.683 2.08075C122.683 2.02092 122.683 1.96543 122.683 1.90451C122.683 1.8436 122.675 1.78268 122.673 1.72066C122.66 1.47915 122.639 1.24851 122.618 1.02876C122.593 1.0202 122.567 1.01437 122.54 1.01135L122.399 0.990683H122.374C122.337 0.990683 122.302 0.990683 122.265 0.990683C122.255 1.01788 122.338 1.49764 122.356 1.58358C122.366 1.62927 122.445 2.13406 122.446 2.16343V2.17866H122.268V2.18628C122.232 1.9687 122.19 1.75112 122.139 1.54334C122.088 1.33554 122.039 1.16801 121.984 0.999387C121.815 1.02067 121.649 1.06382 121.491 1.12776C121.491 1.12776 121.479 1.12776 121.475 1.13537C121.367 1.18236 121.264 1.24265 121.17 1.31488L121.124 1.34969C121.059 1.41635 121 1.48644 120.943 1.55965C120.858 1.67606 120.787 1.78485 120.738 1.85774C120.707 1.90126 120.707 1.96109 120.673 2.02636C120.66 2.06197 120.65 2.0983 120.642 2.13515C120.635 2.17363 120.63 2.21249 120.626 2.25156C120.635 2.2547 120.645 2.2587 120.654 2.26352C120.714 2.27875 120.77 2.29398 120.827 2.30378C120.976 2.33544 121.128 2.35148 121.28 2.35164H121.322C121.395 2.3519 121.467 2.34827 121.54 2.34076V2.35164C121.599 2.5798 121.717 2.78838 121.882 2.95651C122.011 3.09374 122.164 3.2046 122.335 3.28289C122.374 3.30089 122.414 3.31544 122.456 3.32639C122.479 3.33401 122.501 3.34272 122.527 3.34925C122.525 3.38728 122.525 3.42542 122.527 3.46347C122.527 3.52113 122.527 3.57879 122.527 3.62992L122.673 3.64733C122.673 3.59729 122.673 3.54506 122.68 3.49828C122.677 3.47733 122.677 3.45614 122.68 3.43519V3.33728C122.68 3.27853 122.68 3.21651 122.68 3.15342V3.05007C122.68 2.9848 122.68 2.92388 122.68 2.86295V2.83141C122.68 2.80856 122.68 2.78572 122.68 2.76613V2.70303H122.861V2.86512C122.875 2.88035 122.889 2.8945 122.901 2.91082C122.968 2.98262 123.036 3.06203 123.102 3.13601C123.121 3.15995 123.141 3.1828 123.161 3.20347C123.165 3.20712 123.169 3.21198 123.172 3.21761C123.18 3.22523 123.188 3.23719 123.193 3.24372C123.242 3.30137 123.291 3.36012 123.335 3.41995C123.39 3.38641 123.442 3.34742 123.49 3.30355C123.533 3.26539 123.572 3.22231 123.605 3.17518C123.623 3.15319 123.638 3.13031 123.652 3.10664C123.671 3.07466 123.689 3.04161 123.705 3.00764C123.714 2.98371 123.725 2.96195 123.735 2.93801C123.741 2.92753 123.746 2.91617 123.749 2.9043C123.766 2.85722 123.786 2.8111 123.808 2.76613C123.837 2.69334 123.888 2.63165 123.954 2.58989C123.939 2.54452 123.913 2.50324 123.88 2.46913L123.897 2.47566ZM121.388 8.88773L121.279 8.77349C121.256 8.74629 121.233 8.72019 121.21 8.69626C121.21 8.69082 121.201 8.68429 121.198 8.67885L120.529 9.23695L122.588 11.5357L122.668 11.4683L123.885 10.4401C123.488 10.3264 123.105 10.1646 122.746 9.95821C122.311 9.70928 121.909 9.40625 121.55 9.05635C121.541 9.04827 121.532 9.03913 121.525 9.02915C121.496 9.00304 121.47 8.97802 121.445 8.94973C121.423 8.93032 121.403 8.90961 121.383 8.88773H121.388ZM119.92 9.72323L119.91 9.73085L120.519 10.2204L122.012 11.4291L122.12 11.2952L120.597 9.58398L120.554 9.53829C120.554 9.53829 120.543 9.53829 120.546 9.52632L120.381 9.34138L119.915 9.72432L119.92 9.72323ZM119.861 10.5435L119.883 10.549L121.221 11.0614L121.329 11.1016L120.1 10.1225L120.043 10.079L119.861 10.5435ZM110.544 19.5447C110.491 19.3196 110.435 19.0791 110.382 18.8921L109.968 17.4528L109.386 15.4325C109.26 14.9902 109.237 14.5244 109.32 14.0719C109.404 13.6193 109.592 13.1923 109.868 12.8243C110.145 12.4564 110.502 12.1576 110.914 11.9514C111.325 11.7451 111.778 11.6371 112.239 11.6357C112.382 11.6361 112.525 11.6463 112.666 11.6663C112.763 11.6568 112.858 11.6422 112.953 11.6227C112.999 11.6135 113.045 11.6001 113.089 11.5825C113.123 11.5716 113.158 11.5596 113.189 11.5466C113.249 11.5226 113.313 11.4954 113.383 11.4638C113.492 11.4138 113.608 11.3649 113.718 11.3192C114.252 11.0819 114.815 10.9188 115.393 10.834C116.111 10.7318 116.839 10.7432 117.553 10.8677C117.977 10.943 118.393 11.0604 118.794 11.218C118.946 11.2717 119.103 11.3131 119.261 11.342C119.52 11.342 119.542 11.0701 119.861 11.0701C120.012 11.1039 120.158 11.1565 120.296 11.2267C120.296 11.2267 120.253 11.292 120.252 11.292C119.665 12.2477 119.227 13.2873 118.954 14.3751C118.947 14.3939 118.941 14.4132 118.937 14.4328C118.925 14.4839 118.911 14.5415 118.898 14.5927C118.898 14.5927 123.141 16.3017 123.151 16.3094C123.18 16.2365 123.92 14.4513 123.92 14.4513C123.92 14.4513 124.7 14.9952 125.106 15.2345C125.089 15.5607 125.092 15.8877 125.114 16.2136C125.185 17.4788 125.413 19.3554 125.483 19.9375C125.544 20.0104 125.592 20.0811 125.689 20.0811C125.786 20.0811 126.886 19.9647 127.188 19.56L127.004 16.7782L126.867 14.7395L125.415 11.2767L125.189 10.7394L124.762 11.7663L123.004 15.9808L119.211 14.4796C119.211 14.4675 119.211 14.4588 119.217 14.4469C119.216 14.4453 119.215 14.4433 119.215 14.4415C119.215 14.4395 119.216 14.4376 119.217 14.436C119.218 14.4199 119.222 14.4043 119.228 14.3892C119.511 13.2486 119.977 12.1615 120.608 11.1701C120.626 11.1223 120.637 11.0972 120.637 11.0929C120.637 11.0091 120.637 11.0244 120.618 11.0059L119.628 10.6294L119.889 9.96474L119.638 9.76348L119.705 9.70583L119.951 9.5013L120.334 9.18363L120.799 8.79525L121.004 8.62336L121.081 8.56244L120.988 8.43408C120.988 8.43408 120.838 8.23281 120.771 8.12837C120.615 7.89843 120.479 7.6561 120.363 7.40384C120.291 7.24391 120.228 7.08616 120.175 6.92951C120.15 6.87206 120.132 6.81179 120.121 6.75C120.064 6.54972 120.022 6.34533 119.994 6.13861C119.979 6.02073 119.97 5.90189 119.969 5.78287V5.73609C119.973 5.50832 120.038 5.28586 120.158 5.09205C120.195 5.0255 120.24 4.96405 120.293 4.90929L120.319 4.88644C120.359 4.84322 120.402 4.80252 120.447 4.7646C120.535 4.69169 120.632 4.63061 120.735 4.58292C120.803 4.54406 120.873 4.51268 120.947 4.48935C120.947 4.43279 120.947 4.37078 120.957 4.29463C121 4.29463 121.043 4.3066 121.082 4.31421C121.195 4.3318 121.306 4.35984 121.415 4.39798C121.422 4.39933 121.431 4.40189 121.438 4.40559C121.405 4.18801 121.149 4.14559 121.063 4.02591C121.043 4.00256 121.031 3.97238 121.031 3.94106C121.031 3.91291 121.04 3.88546 121.054 3.86165C121.088 3.82417 121.108 3.77685 121.113 3.72674C121.114 3.70344 121.107 3.68045 121.095 3.66038C121.087 3.63934 121.072 3.62124 121.053 3.60816C121.053 3.60816 121.053 3.60816 121.048 3.60816C121.034 3.5983 121.019 3.58957 121.003 3.58205C120.984 3.56682 120.964 3.5516 120.947 3.53963C120.929 3.52766 120.898 3.49176 120.874 3.46891C120.657 3.25106 120.505 2.97605 120.439 2.67584C120.439 2.6519 120.431 2.63015 120.426 2.60295C120.42 2.57575 120.418 2.54202 120.416 2.50939C120.405 2.4081 120.405 2.30606 120.416 2.20477C120.421 2.17649 120.426 2.14385 120.431 2.1134C120.498 1.78322 120.675 1.48538 120.933 1.2681C121.004 1.20848 121.08 1.15361 121.159 1.10382C121.165 1.10023 121.17 1.09584 121.175 1.09077C121.269 1.03402 121.368 0.987343 121.471 0.951519C121.488 0.944481 121.507 0.938665 121.524 0.934111C121.536 0.929353 121.548 0.926417 121.56 0.925409C121.656 0.894833 121.754 0.871559 121.854 0.855785C121.941 0.842568 122.03 0.834938 122.118 0.832939C122.176 0.832939 122.236 0.832939 122.291 0.832939C122.314 0.832939 122.34 0.838378 122.361 0.840554C122.382 0.84273 122.4 0.840553 122.419 0.845993H122.561C122.612 0.845993 122.67 0.845993 122.731 0.845993C122.746 0.866663 122.76 0.885157 122.773 0.906915L122.789 0.928673C122.838 1.01353 122.876 1.09186 122.902 1.14625C122.902 1.15387 122.909 1.15822 122.915 1.16148C122.928 1.18274 122.943 1.20214 122.962 1.21914C123.113 1.3584 123.363 1.39864 123.419 1.52375C123.476 1.64886 123.688 2.07967 123.688 2.07967C123.688 2.07967 124.139 2.58881 124.139 2.61165C124.139 2.70739 124.139 2.75199 124.2 2.82162C124.291 2.7965 124.381 2.76673 124.469 2.7324C124.473 2.66133 124.482 2.59052 124.493 2.52027C124.5 2.50286 124.82 2.08511 124.982 2.10251C125.024 2.10251 125.581 2.05682 125.584 2.05682C126.08 1.66587 126.425 1.11361 126.557 0.495689V0.480458C126.561 0.47068 126.564 0.46044 126.565 0.449998C126.572 0.42515 126.587 0.402719 126.606 0.384725C126.638 0.359611 126.675 0.34263 126.715 0.33524C126.755 0.32785 126.797 0.330273 126.835 0.342297C126.921 0.361998 127.002 0.393486 127.078 0.435855C127.215 0.513893 127.342 0.608937 127.454 0.718708C127.491 0.755697 127.523 0.788334 127.554 0.827498C127.625 0.906737 127.687 0.992732 127.741 1.08424C127.788 1.14349 127.819 1.21257 127.835 1.28613C127.85 1.35969 127.849 1.43578 127.829 1.50852L127.815 1.52811C127.421 2.14726 126.826 2.6126 126.13 2.84664C126.11 2.85496 126.092 2.86517 126.075 2.87709C126.213 3.00992 126.315 3.17581 126.371 3.35903H127.107V5.47717C127.107 5.50981 127.107 5.53918 127.101 5.56964C127.094 5.6001 127.093 5.63383 127.085 5.66646C127.077 5.6991 127.077 5.70563 127.072 5.72521C127.045 5.81867 127.007 5.90803 126.956 5.99066C126.945 6.00806 126.932 6.02329 126.92 6.04288C126.841 6.15161 126.74 6.24346 126.624 6.31311C126.509 6.38276 126.382 6.42884 126.248 6.44867C126.199 6.45628 126.149 6.45954 126.098 6.4639H125.072L126.735 8.33399C126.735 8.33399 126.24 8.73978 126.07 8.89969C126.146 9.00714 126.232 9.10633 126.327 9.1956C126.436 9.26305 127.145 9.32288 127.088 9.65796C127.083 9.6972 127.075 9.73583 127.062 9.77328C126.981 9.93718 126.883 10.0918 126.769 10.2345C126.654 10.3836 126.413 10.3967 126.334 10.6436C126.455 10.7244 126.547 10.8423 126.596 10.9797C126.999 10.5109 127.355 10.0037 127.66 9.4654C128.513 9.68297 130.571 10.8285 131.113 10.9972C131.497 11.1008 131.889 11.1761 132.284 11.2224C132.231 11.3493 132.195 11.4823 132.176 11.6184C132.176 11.6684 132.344 11.7163 132.532 11.8294C132.633 11.8913 132.725 11.967 132.804 12.0546C132.765 12.5268 132.832 13.0017 133.004 13.4438C133.067 13.5951 133.122 13.7503 133.166 13.9083C133.183 13.9585 133.194 14.0085 133.208 14.0617C133.234 14.1785 133.257 14.299 133.277 14.423C133.299 14.5796 133.316 14.7395 133.323 14.8994C133.323 14.9408 133.323 14.9832 133.323 15.0256V15.2051C133.326 15.2413 133.326 15.2777 133.323 15.314C133.314 15.5119 133.294 15.7091 133.262 15.9047C133.252 15.946 133.246 15.9884 133.237 16.0341C133.227 16.0799 133.212 16.156 133.196 16.2126C133.145 16.429 133.075 16.6408 132.988 16.8456C132.977 16.8664 132.967 16.8878 132.959 16.9099C132.954 16.9251 132.947 16.9371 132.943 16.949C132.939 16.9547 132.936 16.9609 132.933 16.9675C132.913 16.9675 132.892 16.9545 132.871 16.949C132.742 16.9056 132.619 16.8488 132.502 16.7793C132.425 16.7314 132.351 16.6814 132.284 16.6259C132.21 16.5665 132.14 16.5018 132.076 16.4323C132.199 16.696 132.382 16.9271 132.611 17.1068C132.65 17.1351 132.692 17.1688 132.734 17.1971C132.766 17.2124 132.798 17.2251 132.831 17.2352C132.831 17.2352 133.395 17.4147 133.508 17.4375C134.114 17.5334 134.713 17.6682 135.302 17.8412C135.399 17.8738 135.576 17.6519 136.109 17.6975C136.345 17.7246 136.564 17.8302 136.733 17.9974C136.901 18.1645 137.009 18.3835 137.037 18.619C137.025 18.9736 136.874 19.0606 136.82 19.2652C136.754 19.5274 136.347 21.7739 136.302 22.1655C136.273 22.4179 136.265 22.7714 136.265 22.7759C136.265 22.8117 136.364 23.2349 136.373 23.3774C136.373 23.4057 136.373 23.4253 136.373 23.4536C136.373 23.5182 136.368 23.5826 136.357 23.6462C136.341 23.7795 136.298 23.9083 136.231 24.0246C136.164 24.1409 136.074 24.2424 135.966 24.3228C135.966 24.3358 135.959 24.35 135.953 24.363C135.923 24.4719 135.886 24.5806 135.845 24.6895C135.643 25.2391 135.328 25.74 134.92 26.1592L134.909 26.1407L134.094 24.5806L134.084 24.5632C134.259 24.2377 134.482 23.9406 134.746 23.682C134.78 23.6437 134.816 23.6074 134.854 23.5733C134.937 23.4971 135.024 23.4242 135.108 23.3557C135.108 23.3317 135.108 23.3067 135.108 23.2838C135.113 23.1131 135.154 22.9454 135.231 22.7927C135.308 22.64 135.417 22.506 135.551 22.4005C135.551 22.3374 135.673 19.9854 135.576 19.1172C135.249 19.0667 134.935 18.9497 134.655 18.7734C134.574 18.7136 131.984 18.9627 131.905 18.9682C131.827 18.9736 131.611 18.8702 131.459 18.8736C131.308 18.8768 131.066 18.9083 130.976 18.9083C130.804 18.9084 130.637 18.8544 130.498 18.7539C130.352 18.6479 130.249 18.4937 130.206 18.3187C130.195 18.2798 130.187 18.2396 130.185 18.199V18.1098C130.186 18.0817 130.188 18.0538 130.193 18.026C130.193 17.9988 130.203 17.9706 130.207 17.9412C130.227 17.8713 130.255 17.8043 130.293 17.7421C130.15 17.7001 130.01 17.6451 129.877 17.5779C129.751 17.5141 129.63 17.4413 129.514 17.3603C129.234 17.1612 128.995 16.9097 128.81 16.6195C128.746 16.52 128.69 16.4164 128.641 16.3094C128.801 16.966 129.21 17.5351 129.781 17.8966C129.774 17.9499 129.768 18.0054 129.765 18.063C129.761 18.1665 129.771 18.27 129.793 18.371C129.839 18.5886 129.943 18.79 130.093 18.954C130.267 19.1469 130.494 19.2837 130.746 19.3468C130.54 20.1083 130.087 21.4138 130.087 21.5084C129.896 22.0974 129.656 22.6688 129.368 23.2164C129.328 23.785 129.244 24.3497 129.12 24.906C129.1 25.0279 129.09 25.1511 129.088 25.2748C129.088 25.3726 129.036 25.9753 129.001 26.9457C129.001 27.0284 128.969 27.0415 128.969 27.1393C128.974 27.2203 129.002 27.2983 129.048 27.3645C129.048 27.3645 129.055 27.3743 129.059 27.3798C129.094 27.4255 129.129 27.4701 129.162 27.5158C129.195 27.5615 129.251 27.6409 129.295 27.7051C129.395 27.8547 129.485 28.0106 129.565 28.1717C129.606 28.2523 129.644 28.3328 129.674 28.4133C129.695 28.4478 129.711 28.4842 129.725 28.5221C129.866 28.871 129.963 29.2366 130.012 29.61H128.098C128.12 29.499 128.133 29.3867 128.138 29.2738C128.151 28.8369 128.051 28.4041 127.85 28.0162C127.778 27.8188 127.674 27.6349 127.541 27.4723C127.569 27.1925 127.62 26.9156 127.693 26.6444C127.809 26.3272 127.954 26.022 128.129 25.7327C128.129 25.7327 128.249 23.4253 128.249 23.3295C128.249 23.2338 128.086 22.3994 128.018 21.9751C127.959 21.5298 127.833 21.0959 127.644 20.6881C127.6 20.6033 127.851 20.3683 127.927 20.2268L127.88 20.1812C127.868 20.1801 127.857 20.1801 127.846 20.1812C127.746 20.2682 125.897 20.8252 125.897 20.8252C125.728 20.5979 125.536 20.3879 125.326 20.1986C124.512 20.1387 123.704 20.036 122.901 19.8907C121.752 19.6825 120.623 19.3805 119.523 18.9878C119.333 18.9192 119.153 18.8464 118.979 18.7777C118.971 18.786 118.964 18.7956 118.959 18.806V18.904C118.958 19.0307 118.949 19.1571 118.933 19.2826C118.885 19.7639 118.756 20.2337 118.552 20.6718C118.464 20.8596 118.356 21.0373 118.231 21.2016C118.222 21.2169 118.214 21.2343 118.207 21.2473C118.292 21.4199 118.355 21.6027 118.392 21.7913C118.419 21.9091 118.437 22.0288 118.447 22.1491C118.457 22.2973 118.457 22.446 118.447 22.5941C119.237 23.5471 119.96 24.554 120.611 25.6076C120.616 25.615 120.621 25.6226 120.625 25.6305C120.77 25.7199 120.889 25.8465 120.968 25.9972C121.049 26.1479 121.087 26.3173 121.08 26.4878C121.078 26.5939 121.063 26.6995 121.036 26.8021C121.003 26.9172 120.951 27.0254 120.88 27.122C120.909 27.2308 120.931 27.3396 120.949 27.4549C120.988 27.6975 121.003 27.9436 120.993 28.1892V28.2121C120.975 28.5769 120.902 28.9369 120.774 29.2792C120.745 29.3471 120.712 29.4128 120.674 29.4762L119.26 28.2882L119.225 28.261C119.291 28.0859 119.369 27.9154 119.458 27.7508C119.553 27.577 119.656 27.4085 119.768 27.246C119.596 27.0743 119.486 26.8492 119.458 26.6074C119.454 26.5648 119.452 26.5219 119.452 26.4791C119.452 26.4431 119.452 26.4018 119.458 26.3626C119.469 26.1067 119.55 25.8588 119.694 25.6468C119.515 25.3346 119.087 24.7231 118.953 24.5513C118.697 24.2295 118.415 23.929 118.11 23.6526C117.904 23.549 117.685 23.4719 117.458 23.4231C117.441 23.4231 117.494 23.4231 117.458 23.4231C117.349 23.4112 117.01 23.3557 117.01 23.3557L116.496 23.2664H116.464L116.591 22.865C116.591 22.8574 116.591 22.8498 116.591 22.8389C116.609 22.6896 116.609 22.5389 116.591 22.3896C116.579 22.2843 116.553 22.181 116.516 22.0817C116.503 22.048 116.487 22.0164 116.472 21.9838C116.452 21.9463 116.43 21.91 116.406 21.8751C116.399 21.8667 116.392 21.8576 116.386 21.8479C116.205 21.6085 115.789 21.0776 115.718 20.995C115.733 20.9797 115.747 20.9601 115.759 20.9471L115.779 20.9221C116.055 20.5802 116.289 20.2073 116.478 19.8113C116.57 19.6169 116.651 19.4175 116.722 19.2141C116.811 18.9573 116.88 18.6944 116.931 18.4274C116.957 18.3034 116.979 18.1794 116.999 18.049C116.997 18.0374 116.997 18.0256 116.999 18.0141C117.085 17.9565 117.169 17.8933 117.249 17.828C117.478 17.646 117.681 17.4337 117.853 17.1971C117.962 17.0509 118.057 16.8955 118.138 16.7326C118.155 16.6978 118.172 16.6633 118.187 16.6292C118.167 16.6586 118.148 16.6901 118.126 16.7206C117.847 17.1139 117.488 17.4426 117.071 17.6845L117.027 17.7062C116.992 17.7282 116.955 17.7482 116.918 17.7661C116.836 17.8099 116.75 17.8488 116.663 17.8825C116.646 18.0032 116.624 18.1196 116.599 18.2349C116.563 18.4057 116.519 18.5678 116.47 18.7299C116.428 18.8713 116.377 19.0117 116.323 19.1466C116.238 19.3707 116.137 19.5888 116.022 19.7993C115.894 20.04 115.746 20.2703 115.581 20.488C115.538 20.5413 115.501 20.5968 115.461 20.6403C115.138 21.0378 114.757 21.3834 114.33 21.665C114.101 21.8152 113.858 21.9434 113.605 22.048C113.531 22.0785 113.459 22.1089 113.387 22.1318C113.254 22.4296 113.05 22.6908 112.795 22.8933C112.658 22.9875 112.535 23.0998 112.428 23.2273C112.25 23.5156 112.117 23.8287 112.031 24.1563C111.884 24.691 111.767 25.2337 111.683 25.7817C111.683 25.8731 111.644 26.2669 111.644 26.3626C111.644 26.4583 111.921 27.3896 111.921 27.4907C111.921 27.4956 111.921 27.5004 111.923 27.5049C111.925 27.5094 111.928 27.5134 111.931 27.5168C112.352 27.834 112.681 28.256 112.887 28.7407C113.011 29.0174 113.094 29.3106 113.134 29.611H111.502C111.461 29.3514 111.395 29.0963 111.304 28.8495C111.151 28.4295 110.927 28.0389 110.641 27.6953C110.579 27.6188 110.513 27.5461 110.443 27.4777C110.417 27.4304 110.402 27.3774 110.401 27.3232C110.399 27.3136 110.399 27.3035 110.401 27.2939C110.441 26.9572 110.526 26.6277 110.656 26.3147C110.708 26.2193 110.743 26.1159 110.76 26.009C110.76 25.9144 110.924 23.9942 110.912 23.9236C110.751 23.4346 110.54 22.9635 110.283 22.5179C110.376 22.396 110.479 22.2822 110.592 22.1774C110.841 21.9892 111.023 21.7256 111.112 21.4257C111.128 21.3409 111.199 21.3343 111.199 21.2364C111.202 21.2047 111.195 21.1728 111.179 21.145C110.811 21.4194 110.364 21.5667 109.904 21.565C110.182 21.3383 110.391 21.04 110.511 20.7024C110.63 20.3648 110.654 20.0009 110.582 19.6503C110.576 19.6187 110.57 19.5883 110.562 19.5611" fill="#183C80"/>
<path d="M0 29.3587V5.98413H11.9444V9.93428H4.36114V15.3085H10.1387V19.2587H4.36114V25.4096H12.2611V29.3597L0 29.3587Z" fill="#183C80"/>
<path d="M23.5421 12.4907C23.3019 11.6031 22.8584 10.7837 22.2465 10.0974C21.997 9.85178 21.7004 9.65917 21.3745 9.53111C21.0487 9.40305 20.7003 9.34218 20.3504 9.35214C20.0214 9.32992 19.6915 9.37918 19.3833 9.49656C19.0752 9.61392 18.7961 9.79661 18.5652 10.0321C18.1296 10.5573 17.9095 11.2285 17.9495 11.9098C17.9518 12.2035 18.0181 12.4933 18.1436 12.7589C18.269 13.0245 18.4508 13.2597 18.6762 13.448C19.2281 13.9389 19.8322 14.3675 20.4776 14.7263C21.1935 15.1368 21.9731 15.5738 22.8165 16.0373C23.6523 16.4959 24.4365 17.043 25.1553 17.6691C25.8793 18.3049 26.4887 19.0604 26.9568 19.9026C27.4637 20.8584 27.714 21.9292 27.6835 23.0107C27.697 23.9506 27.5308 24.8845 27.194 25.762C26.8821 26.5601 26.3964 27.2788 25.7721 27.866C25.1125 28.4713 24.3316 28.9293 23.4811 29.2096C22.4925 29.5351 21.4565 29.6936 20.4157 29.6784C18.7386 29.7173 17.1009 29.1676 15.7869 28.1249C14.3236 26.8041 13.3306 25.0423 12.9585 23.1064L17.2555 22.1708C17.3534 22.7931 17.5394 23.3983 17.8081 23.968C18.0171 24.4072 18.3005 24.8069 18.6458 25.1495C18.9293 25.4331 19.2681 25.6552 19.6411 25.8022C19.9586 25.9262 20.2957 25.9921 20.6365 25.9969C21.1685 25.9756 21.6834 25.8028 22.1207 25.499C22.558 25.1951 22.8996 24.7728 23.1052 24.2816C23.3107 23.7904 23.372 23.2507 23.2816 22.7259C23.191 22.2011 22.9527 21.713 22.5946 21.319C22.0616 20.7508 21.4559 20.2555 20.7932 19.846C20.0767 19.3927 19.297 18.9448 18.4543 18.5024C17.6278 18.0707 16.8446 17.5607 16.1155 16.9794C15.4105 16.4176 14.8033 15.743 14.3183 14.9831C13.8114 14.1452 13.5588 13.178 13.5916 12.1991C13.5437 11.3266 13.6714 10.4534 13.9672 9.63112C14.263 8.80888 14.7209 8.0544 15.3137 7.41242C16.0072 6.78953 16.8198 6.3135 17.7022 6.01305C18.5846 5.71259 19.5188 5.59392 20.4483 5.66417C21.3403 5.65185 22.2277 5.7943 23.0711 6.08519C23.8223 6.34971 24.5186 6.75019 25.1249 7.26664C25.7159 7.77545 26.2133 8.38368 26.5946 9.06385C26.992 9.77349 27.285 10.5367 27.4648 11.33L23.5421 12.4907Z" fill="#183C80"/>
<path d="M42.8489 5.98413V9.93428H37.7611V29.3587H33.401V9.93428H28.3132V5.98413H42.8489Z" fill="#183C80"/>
<path d="M40.0053 29.3587L45.6621 5.98413H51.2557L56.7537 29.3587H52.5873L51.4755 24.437H45.4402L44.2109 29.3587H40.0053ZM46.2299 20.4879H50.5596L48.4426 11.0341H48.3795L46.2299 20.4879Z" fill="#183C80"/>
<path d="M57.6692 5.984H63.736C64.8573 5.96695 65.9751 6.11354 67.0539 6.41916C67.9766 6.68386 68.8222 7.16669 69.519 7.8269C70.2282 8.53028 70.7638 9.38921 71.0833 10.3355C71.4825 11.5422 71.6903 12.8038 71.699 14.0747V21.2613C71.6903 22.5323 71.4826 23.7939 71.0833 25.0005C70.764 25.9469 70.2283 26.8058 69.519 27.5091C68.8223 28.1697 67.9767 28.6529 67.0539 28.918C65.975 29.2235 64.8573 29.3701 63.736 29.3531H57.6692V5.984ZM62.0347 25.4084H63.5511C64.0622 25.4396 64.5744 25.3653 65.0556 25.1899C65.5368 25.0145 65.9767 24.742 66.3479 24.389C67.1253 23.343 67.4806 22.0428 67.3433 20.7468V14.5958C67.4518 13.3404 67.1462 12.084 66.473 11.0188C66.1013 10.6262 65.6445 10.324 65.1379 10.1354C64.6312 9.94685 64.088 9.87687 63.5501 9.93089H62.0347V25.4084Z" fill="#183C80"/>
<path d="M71.637 29.3576L77.2937 5.98303H82.8918L88.3897 29.3576H84.219L83.1094 24.4371H77.0718L75.8393 29.3576H71.637ZM85.793 0.318359C85.6923 0.818801 85.5549 1.31114 85.3819 1.79137C85.2226 2.23496 85.0029 2.65448 84.7292 3.0381C84.4686 3.40085 84.128 3.69867 83.7338 3.90842C83.2841 4.13673 82.7845 4.24893 82.2804 4.23478C81.8615 4.23398 81.4448 4.17429 81.0425 4.05746C80.6319 3.93924 80.2371 3.80978 79.8579 3.66908C79.4785 3.52838 79.1046 3.39892 78.7362 3.2807C78.3851 3.16502 78.0181 3.10484 77.6484 3.10229C77.4702 3.09404 77.2924 3.12615 77.1284 3.19623C76.9643 3.2663 76.8181 3.37253 76.7009 3.50699C76.4664 3.78138 76.3035 4.10951 76.2266 4.46215H74.2359C74.3172 3.95374 74.4495 3.45479 74.6307 2.97283C74.7991 2.51663 75.0393 2.09025 75.3422 1.70978C75.631 1.34958 75.9914 1.05323 76.4006 0.839462C76.8566 0.612414 77.3611 0.500367 77.8704 0.513092C78.2938 0.513573 78.7146 0.579255 79.118 0.707826C79.5285 0.836924 79.9234 0.971822 80.3027 1.11252C80.682 1.25322 81.0403 1.38812 81.3775 1.51722C81.6582 1.63493 81.9578 1.7009 82.2619 1.71196C82.4406 1.71415 82.6178 1.67933 82.7824 1.60968C82.9469 1.54003 83.0953 1.43706 83.2181 1.30726C83.4828 1.03459 83.6635 0.691774 83.7392 0.319447L85.793 0.318359ZM77.8627 20.4869H82.1923L80.0753 11.033H80.0123L77.8627 20.4869Z" fill="#183C80"/>
<path d="M88.447 13.4938C88.4154 12.2525 88.5973 11.015 88.9845 9.83525C89.2889 8.92851 89.7969 8.10349 90.4694 7.42338C91.1111 6.80253 91.8906 6.34216 92.744 6.07982C94.6416 5.51864 96.661 5.51864 98.5584 6.07982C99.4119 6.34216 100.192 6.80253 100.833 7.42338C101.505 8.10366 102.013 8.92863 102.318 9.83525C102.705 11.0151 102.887 12.2525 102.855 13.4938V21.8467C102.887 23.088 102.705 24.3255 102.318 25.5054C102.013 26.412 101.505 27.237 100.833 27.9172C100.192 28.5383 99.4119 28.9987 98.5584 29.2607C96.661 29.822 94.6416 29.822 92.744 29.2607C91.8904 28.9987 91.1109 28.5383 90.4694 27.9172C89.7967 27.2372 89.2887 26.4121 88.9845 25.5054C88.5972 24.3255 88.4153 23.088 88.447 21.8467V13.4938ZM92.8082 22.4288C92.7518 22.8947 92.7901 23.3672 92.921 23.8179C93.0518 24.2688 93.2725 24.6884 93.5697 25.0517C94.1754 25.4932 94.9055 25.7312 95.655 25.7312C96.4046 25.7312 97.1348 25.4932 97.7405 25.0517C98.0378 24.6884 98.258 24.2688 98.3891 23.8179C98.5203 23.3672 98.5584 22.8947 98.5017 22.4288V12.9161C98.5584 12.4504 98.5203 11.978 98.3891 11.5275C98.258 11.0769 98.0378 10.6575 97.7405 10.2943C97.1349 9.85259 96.4046 9.61455 95.655 9.61455C94.9055 9.61455 94.1753 9.85259 93.5697 10.2943C93.2726 10.6575 93.052 11.0769 92.9212 11.5275C92.7903 11.978 92.752 12.4504 92.8082 12.9161V22.4288Z" fill="#183C80"/>
</svg>
