<svg width="130" height="22" viewBox="0 0 130 22" fill="none" xmlns="http://www.w3.org/2000/svg">
<path d="M19.324 21.612V21.2444C22.8188 21.2444 24.8912 19.0688 29.2035 12.552L23.1941 3.36275C22.1566 1.75589 21.5686 1.12754 19.8116 1.12754V0.759971H32.7031V1.12754C31.2425 1.12754 30.9844 1.73105 30.9844 2.49599C30.9844 3.09205 31.288 3.66824 31.6226 4.23449L34.5078 8.70491C36.4201 5.80907 37.7444 3.73777 37.7444 2.45873C37.7444 1.48766 37.0273 1.13996 35.801 1.13996V0.772394H43.185V1.13996C40.5292 1.13996 39.1548 2.6599 34.7947 9.14947L41.0599 18.8354C42.1428 20.487 43.2328 21.2469 44.581 21.2469V21.6145H32.2322V21.2469C33.3437 21.2469 33.7429 20.8148 33.7429 20.097C33.7429 19.6177 33.4011 18.967 32.9325 18.2716L29.4808 12.999C27.0139 16.774 26.3303 17.9786 26.3303 19.0539C26.3303 20.333 27.2864 21.2469 28.9597 21.2469V21.6145L19.324 21.612ZM112.908 9.26372C113.085 3.17649 114.187 1.54727 115.514 1.54727C116.84 1.54727 118.158 2.87349 118.107 9.26372H112.908ZM105.481 10.8606C105.481 19.6401 114.206 24.0658 121.755 20.2162L121.516 19.9679C116.57 21.6816 113.076 17.904 113.076 10.8582C113.076 10.5328 113.076 10.2199 113.076 9.91441H125.157C125.157 3.77006 121.748 0 115.834 0C110.24 0.00496714 105.481 4.91995 105.481 10.8606ZM69.826 3.00263V2.65245L79.0482 0.392408V3.71045C81.0943 2.1458 83.272 0.407309 85.6003 0.407309C88.0743 0.407309 89.7141 1.60687 90.3261 3.87188C92.432 2.26998 94.679 0.407309 97.0885 0.407309C100.282 0.407309 102.084 2.39416 102.08 6.11952V18.7956C102.08 20.5341 102.436 20.8645 103.624 20.8645V21.2221H93.5842V20.8645C94.6527 20.8645 95.0495 20.3379 95.0495 19.0366V5.05903C95.0495 2.55062 92.5683 2.87598 90.4623 4.48285C90.5526 5.01993 90.5958 5.5644 90.5914 6.10958V18.7956C90.5914 20.5341 90.95 20.8669 92.138 20.8669V21.2246H82.0983V20.8669C83.1692 20.8669 83.5636 20.3404 83.5636 19.039V5.05655C83.5636 2.57298 81.1445 2.86604 79.0553 4.42323V19.4041C79.0553 20.5416 79.7294 20.8669 80.5995 20.8669V21.2246H69.8427V20.8669C71.3081 20.8669 72.0204 19.7742 72.0204 18.1077V5.367C72.0037 3.78745 70.5144 3.00263 69.826 3.00263ZM52.7394 16.5108C52.7394 13.8583 53.8581 11.2953 57.5417 10.4211L57.568 16.7666C57.4557 18.4032 56.2581 19.3122 55.1179 19.2973C53.784 19.2799 52.7394 18.4107 52.7394 16.5108ZM45.683 17.2707C45.683 21.0607 49.2351 21.9895 50.894 21.9895C53.8749 21.9895 56.8127 20.2659 57.7664 17.8643C58.1393 20.6856 59.7505 21.9895 62.8126 21.9895C65.497 21.9895 67.2348 20.8471 68.3392 18.7286L68.0643 18.5473C66.6037 19.8512 64.7177 18.8726 64.7177 16.2227V6.50695C64.7177 1.60687 58.6676 -0.918919 53.1673 1.0729L53.2247 1.41067C56.3155 1.43302 57.6517 3.5813 57.6517 7.37123L57.6636 9.8548C48.7259 10.965 45.683 13.4287 45.683 17.2707ZM7.79988 9.26372C7.97437 3.17649 9.07635 1.54727 10.403 1.54727C11.7297 1.54727 13.0468 2.87349 12.9966 9.26372H7.79988ZM0 11.1959C0 20.7105 10.4174 25.2256 18.3105 19.4066L18.0714 19.1583C12.0046 22.829 7.59191 19.1732 7.59191 11.1934C7.59191 10.8706 7.59191 10.5577 7.59191 10.2547H19.673C19.673 4.13763 16.2643 0.387436 10.3504 0.387436C4.75929 0.38992 0 5.28504 0 11.1959ZM50.5116 8.1163C50.9037 8.12371 51.2933 8.04893 51.657 7.89641C52.0207 7.74389 52.3511 7.51678 52.6285 7.22863C52.9058 6.94047 53.1244 6.5972 53.2712 6.21931C53.418 5.84142 53.49 5.43667 53.4828 5.02923C53.4828 4.41866 53.3086 3.82181 52.9821 3.31414C52.6556 2.80647 52.1915 2.41079 51.6486 2.17714C51.1057 1.94349 50.5083 1.88235 49.9319 2.00147C49.3555 2.12058 48.8261 2.4146 48.4106 2.84633C47.995 3.27807 47.712 3.82814 47.5974 4.42697C47.4827 5.02581 47.5416 5.64651 47.7665 6.2106C47.9914 6.77469 48.3722 7.25683 48.8608 7.59604C49.3494 7.93525 49.9239 8.1163 50.5116 8.1163ZM127.023 21.9995C127.416 22.0072 127.806 21.9327 128.17 21.7803C128.534 21.628 128.865 21.401 129.143 21.1128C129.421 20.8247 129.64 20.4813 129.787 20.1032C129.934 19.7252 130.006 19.3201 130 18.9124C130 18.3018 129.825 17.705 129.499 17.1973C129.172 16.6896 128.708 16.2939 128.165 16.0603C127.622 15.8266 127.025 15.7655 126.449 15.8846C125.872 16.0037 125.343 16.2977 124.927 16.7295C124.512 17.1612 124.229 17.7113 124.114 18.3101C123.999 18.909 124.058 19.5297 124.283 20.0938C124.508 20.6578 124.889 21.14 125.378 21.4792C125.866 21.8184 126.441 21.9995 127.028 21.9995H127.023Z" fill="#183C80"/>
</svg>
