<svg width="346" height="102" viewBox="0 0 346 102" fill="none" xmlns="http://www.w3.org/2000/svg">
<path d="M311.476 11.5122C322.547 11.5122 331.069 14.8626 337.041 21.5635C343.014 28.2644 346 37.8787 346 50.4064C346 62.9341 343.014 72.5848 337.041 79.3585C331.069 86.1322 322.547 89.5191 311.476 89.5191C300.332 89.5191 291.774 86.1322 285.802 79.3585C279.829 72.5848 276.843 62.9341 276.843 50.4064C276.843 37.8787 279.829 28.2644 285.802 21.5635C291.774 14.8626 300.332 11.5122 311.476 11.5122ZM311.476 28.0094C307.397 28.0094 304.484 29.6847 302.736 33.0351C300.988 36.3855 300.114 42.176 300.114 50.4064C300.114 58.564 300.988 64.3544 302.736 67.7777C304.484 71.2009 307.397 72.9126 311.476 72.9126C315.482 72.9126 318.323 71.2009 319.998 67.7777C321.746 64.3544 322.62 58.564 322.62 50.4064C322.62 42.176 321.746 36.3855 319.998 33.0351C318.323 29.6847 315.482 28.0094 311.476 28.0094Z" fill="#F3F1F6"/>
<path d="M234.871 11.5122C245.942 11.5122 254.463 14.8626 260.436 21.5635C266.408 28.2644 269.395 37.8787 269.395 50.4064C269.395 62.9341 266.408 72.5848 260.436 79.3585C254.463 86.1322 245.942 89.5191 234.871 89.5191C223.727 89.5191 215.169 86.1322 209.196 79.3585C203.224 72.5848 200.237 62.9341 200.237 50.4064C200.237 37.8787 203.224 28.2644 209.196 21.5635C215.169 14.8626 223.727 11.5122 234.871 11.5122ZM234.871 28.0094C230.792 28.0094 227.878 29.6847 226.13 33.0351C224.382 36.3855 223.508 42.176 223.508 50.4064C223.508 58.564 224.382 64.3544 226.13 67.7777C227.878 71.2009 230.792 72.9126 234.871 72.9126C238.877 72.9126 241.717 71.2009 243.392 67.7777C245.14 64.3544 246.014 58.564 246.014 50.4064C246.014 42.176 245.14 36.3855 243.392 33.0351C241.717 29.6847 238.877 28.0094 234.871 28.0094Z" fill="#F3F1F6"/>
<path d="M128.968 73.1308V58.1631L149.18 12.1675H170.594L147.978 65.4831L141.969 56.5243H192.663V73.1308H128.968ZM162.618 41.0103H183.376V88.754H162.618V41.0103Z" fill="#F3F1F6"/>
<path d="M95.4526 0.914551H97.6377V13.6972H95.4526V0.914551ZM95.4526 87.5524H97.6377V101.755H95.4526V87.5524ZM117.085 19.2691C115.482 18.1766 113.589 17.2661 111.404 16.5378C109.291 15.7366 107.07 15.1539 104.739 14.7897C102.408 14.3527 100.114 14.1342 97.8562 14.1342C91.1553 14.1342 85.7655 15.5181 81.6867 18.2858C77.6807 20.9807 75.6778 24.5861 75.6778 29.1019C75.6778 32.8165 76.4789 35.8028 78.0813 38.0607C79.7565 40.3186 81.9416 42.1759 84.6365 43.6326C87.4043 45.0165 90.427 46.2182 93.7046 47.2379C96.9822 48.1848 100.223 49.1681 103.428 50.1878C106.706 51.2075 109.692 52.5185 112.387 54.1209C115.155 55.6504 117.34 57.7263 118.942 60.3483C120.544 62.8976 121.346 66.2116 121.346 70.2904C121.346 74.0778 120.29 77.3919 118.177 80.2324C116.065 83.0002 113.042 85.1852 109.109 86.7876C105.249 88.3172 100.697 89.0819 95.4526 89.0819C92.2478 89.0819 89.0431 88.6449 85.8383 87.7709C82.6335 86.824 79.6109 85.5494 76.7703 83.947C73.9297 82.3447 71.4533 80.4509 69.3411 78.2659L70.8706 76.7363C72.8372 78.7757 75.1315 80.5602 77.7536 82.0897C80.4485 83.6193 83.2891 84.8211 86.2753 85.6951C89.3344 86.4963 92.3935 86.8969 95.4526 86.8969C102.663 86.8969 108.417 85.4038 112.715 82.4175C117.012 79.3584 119.161 75.316 119.161 70.2904C119.161 66.5029 118.359 63.4438 116.757 61.1131C115.155 58.7824 112.97 56.8886 110.202 55.4319C107.507 53.9752 104.521 52.7734 101.243 51.8266C98.0383 50.8069 94.7971 49.7872 91.5195 48.7675C88.2419 47.675 85.2192 46.3639 82.4515 44.8344C79.7565 43.3048 77.5715 41.3018 75.8963 38.8254C74.2939 36.2762 73.4927 32.9986 73.4927 28.9926C73.4927 25.5694 74.476 22.5831 76.4425 20.0339C78.4819 17.4846 81.3225 15.5181 84.9643 14.1342C88.6789 12.6775 92.9762 11.9491 97.8562 11.9491C101.425 11.9491 105.03 12.459 108.672 13.4787C112.387 14.4984 115.555 15.8458 118.177 17.5211L117.085 19.2691Z" fill="#F3F1F6"/>
<path d="M25.893 12.3862C35.216 12.3862 42.3903 14.5713 47.4159 18.9414C52.5144 23.2387 55.0637 29.3205 55.0637 37.1867C55.0637 45.1986 52.5144 51.4261 47.4159 55.869C42.3903 60.312 35.216 62.5335 25.893 62.5335H2.18507V88.7543H0V12.3862H25.893ZM25.893 60.3484C34.4876 60.3484 41.1157 58.3454 45.7771 54.3395C50.5114 50.2607 52.8786 44.5431 52.8786 37.1867C52.8786 29.976 50.5114 24.4041 45.7771 20.471C41.1157 16.5379 34.4876 14.5713 25.893 14.5713H2.18507V60.3484H25.893ZM32.1205 61.0039H34.8518L55.0637 88.7543H52.3323L32.1205 61.0039Z" fill="#F3F1F6"/>
</svg>

