<svg width="335" height="347" viewBox="0 0 335 347" fill="none" xmlns="http://www.w3.org/2000/svg">
<g clip-path="url(#clip0_274_3164)">
<path d="M176.974 231.23C163.21 247.312 144.039 258.966 123.238 264.002C121.438 264.441 119.908 262.731 120.616 261.061L122.82 255.856C101.823 265.638 79.5792 272.823 56.8095 277.19C52.9607 277.927 48.5186 278.468 45.91 275.068C45.1011 274.006 44.6428 272.729 44.4945 271.411C44.1103 267.977 45.5393 264.813 47.0155 261.771C56.7489 241.741 69.5492 223.253 82.3024 204.852L71.5512 208.55C70.1491 209.037 68.8954 207.597 69.6099 206.319C78.6355 190.156 94.7522 173.561 109.305 161.772L176.974 231.223V231.23Z" fill="#50337F"/>
<path d="M95.8308 207.09C95.6623 207.09 95.5005 207.029 95.3657 206.908C95.0961 206.651 95.0826 206.225 95.3388 205.954L111.664 188.683C111.921 188.412 112.345 188.399 112.615 188.656C112.884 188.913 112.898 189.338 112.642 189.609L96.3161 206.874C96.1813 207.016 96.0061 207.083 95.8241 207.083L95.8308 207.09Z" fill="#0E3168"/>
<path d="M70.1289 260.493C69.9738 260.493 69.8255 260.439 69.6975 260.338C69.4144 260.101 69.3739 259.675 69.6098 259.385C85.8142 239.889 103.286 221.097 121.546 203.541C121.816 203.284 122.24 203.291 122.496 203.561C122.753 203.832 122.746 204.258 122.476 204.515C104.256 222.036 86.8185 240.788 70.6479 260.243C70.5131 260.405 70.3243 260.487 70.1289 260.487V260.493Z" fill="#0E3168"/>
<path d="M123.17 232.487C122.988 232.487 122.813 232.413 122.678 232.271C122.422 232 122.436 231.568 122.712 231.318L137.272 217.69C137.541 217.433 137.973 217.446 138.222 217.723C138.478 217.994 138.458 218.426 138.188 218.676L123.629 232.304C123.501 232.426 123.332 232.487 123.17 232.487Z" fill="#0E3168"/>
<path d="M175.188 223.307L187.974 258.756C188.965 261.507 192.497 262.204 194.418 260.027C207.589 245.142 245.809 197.626 234.68 158.844L175.188 223.307Z" fill="#F3F1F6"/>
<path d="M191.594 261.987C191.311 261.987 191.021 261.96 190.738 261.906C189.161 261.602 187.887 260.514 187.341 258.986L174.554 223.537C174.466 223.3 174.52 223.037 174.696 222.847L234.188 158.385C234.356 158.202 234.599 158.128 234.842 158.189C235.078 158.243 235.266 158.425 235.334 158.662C240.16 175.46 236.433 195.666 224.266 218.717C214.472 237.28 201.685 252.848 194.931 260.48C194.068 261.453 192.868 261.994 191.601 261.994L191.594 261.987ZM175.963 223.469L188.608 258.533C188.992 259.608 189.889 260.372 190.994 260.581C192.086 260.791 193.178 260.419 193.92 259.581C206.019 245.912 244.359 198.667 234.356 160.196L175.97 223.463L175.963 223.469Z" fill="#0E3168"/>
<path d="M115.837 164.083L80.5904 151.605C77.8605 150.638 77.1258 147.075 79.2558 145.108C93.8289 131.629 140.406 92.4418 178.929 103.21L115.837 164.083Z" fill="#F3F1F6"/>
<path d="M115.837 164.759C115.763 164.759 115.689 164.746 115.614 164.719L80.368 152.24C78.8581 151.706 77.7661 150.442 77.4426 148.86C77.119 147.285 77.6246 145.69 78.8042 144.608C86.2727 137.699 101.533 124.592 119.787 114.472C142.462 101.899 162.421 97.8903 179.117 102.561C179.353 102.629 179.529 102.812 179.589 103.048C179.65 103.285 179.576 103.535 179.401 103.697L116.315 164.57C116.187 164.692 116.019 164.759 115.85 164.759H115.837ZM165.05 102.048C129.824 102.048 91.6517 134.549 79.7074 145.602C78.885 146.366 78.5278 147.481 78.757 148.59C78.9862 149.698 79.7546 150.591 80.8128 150.962L115.668 163.306L177.594 103.555C173.489 102.521 169.29 102.048 165.05 102.048Z" fill="#0E3168"/>
<path d="M176.293 232.136C179.023 231.622 181.605 230.297 183.668 228.235C214.243 197.606 339.887 67.3761 334.852 0.141958L334.818 0.108158C268.201 -4.15735 140.804 124.335 110.863 155.586C106.825 159.798 105.74 166.078 108.139 171.431C120.522 199.093 140.481 219.008 168.016 231.176C170.678 232.352 173.563 232.649 176.3 232.136H176.293Z" fill="#F3F1F6"/>
<path d="M311.981 70.195C326.871 44.2031 336.308 19.5497 334.852 0.141958L334.818 0.108159C315.412 -1.13567 290.849 8.88929 265.04 24.4912C265.04 24.4912 270.877 39.4914 284.783 52.5043C299.787 66.5446 311.981 70.2017 311.981 70.2017V70.195Z" fill="#50337F"/>
<path d="M176.637 232.737C176.327 232.737 176.044 232.521 175.976 232.203C175.895 231.838 176.131 231.48 176.495 231.399C179.03 230.858 181.349 229.594 183.189 227.748C203.707 207.198 273.519 135.158 310.444 70.9521C310.633 70.6276 311.037 70.5194 311.368 70.702C311.691 70.8912 311.799 71.3036 311.617 71.6281C274.611 135.976 204.691 208.124 184.146 228.708C182.117 230.736 179.569 232.129 176.778 232.724C176.731 232.737 176.684 232.737 176.637 232.737Z" fill="#0E3168"/>
<path d="M107.128 163.529C107.088 163.529 107.047 163.529 107 163.516C106.636 163.448 106.394 163.096 106.461 162.725C107 159.845 108.355 157.215 110.37 155.106C130.424 134.178 200.741 62.9213 263.671 24.7819C263.988 24.5858 264.406 24.694 264.595 25.0117C264.79 25.3294 264.683 25.7485 264.366 25.9378C201.577 63.9961 131.361 135.144 111.341 156.046C109.508 157.959 108.274 160.359 107.782 162.975C107.721 163.299 107.438 163.522 107.122 163.522L107.128 163.529Z" fill="#0E3168"/>
<path d="M237.37 142.465C225.291 154.816 205.554 154.903 193.286 142.661C181.019 130.419 180.863 110.484 192.943 98.1337C205.022 85.7833 224.758 85.6955 237.026 97.9377C249.294 110.18 249.449 130.115 237.37 142.465Z" fill="#F3F1F6"/>
<path d="M215.254 152.456C206.801 152.456 198.834 149.151 192.808 143.134C180.297 130.649 180.142 110.247 192.457 97.6538C198.409 91.5631 206.363 88.1831 214.856 88.129H215.051C223.504 88.129 231.472 91.4346 237.498 97.451C250.008 109.937 250.163 130.338 237.848 142.932C231.889 149.022 223.942 152.402 215.449 152.456H215.254ZM215.051 89.4878H214.863C206.74 89.5351 199.124 92.7731 193.421 98.6069C181.618 110.673 181.773 130.223 193.758 142.181C199.535 147.941 207.158 151.111 215.254 151.111H215.442C223.572 151.064 231.182 147.826 236.884 141.992C248.687 129.926 248.532 110.376 236.547 98.4176C230.771 92.6582 223.147 89.4878 215.051 89.4878Z" fill="#0E3168"/>
<path d="M230.508 135.617C222.163 144.155 208.52 144.216 200.04 135.753C191.561 127.296 191.453 113.519 199.804 104.982C208.149 96.4437 221.792 96.3829 230.272 104.846C238.751 113.303 238.859 127.08 230.508 135.617Z" fill="#50337F"/>
<path d="M192.639 212.971C192.544 212.971 192.45 212.951 192.356 212.91C163.432 199.539 139.045 175.21 125.435 146.17C125.28 145.832 125.422 145.433 125.759 145.271C126.096 145.108 126.494 145.257 126.655 145.595C140.13 174.352 164.281 198.437 192.915 211.68C193.252 211.835 193.401 212.241 193.245 212.579C193.131 212.829 192.888 212.971 192.632 212.971H192.639Z" fill="#0E3168"/>
<path d="M11.1623 347C10.9871 347 10.8118 346.932 10.6837 346.797C10.4209 346.534 10.4276 346.101 10.6972 345.844L57.3016 300.106C57.5712 299.843 57.9959 299.85 58.252 300.12C58.5149 300.384 58.5081 300.816 58.2385 301.073L11.6342 346.811C11.5061 346.939 11.3308 347.007 11.1623 347.007V347Z" fill="#0E3168"/>
<path d="M0.674159 301.384C0.492163 301.384 0.310168 301.31 0.175356 301.161C-0.0740452 300.884 -0.0538235 300.458 0.22254 300.208L29.3486 273.675C29.6249 273.425 30.0496 273.445 30.299 273.723C30.5484 274 30.5282 274.426 30.2518 274.676L1.12578 301.208C0.997707 301.323 0.835933 301.384 0.674159 301.384Z" fill="#0E3168"/>
<path d="M12.6655 254.93C12.4835 254.93 12.3083 254.856 12.1735 254.714C11.9173 254.443 11.9308 254.011 12.2072 253.76L42.2364 225.524C42.5061 225.267 42.9375 225.281 43.1869 225.558C43.443 225.829 43.4295 226.261 43.1532 226.511L13.1239 254.747C12.9958 254.869 12.8273 254.93 12.6655 254.93Z" fill="#0E3168"/>
<path d="M72.987 333.352C72.8118 333.352 72.6365 333.284 72.5085 333.149C72.2456 332.885 72.2523 332.453 72.5219 332.196L110.674 294.759C110.943 294.496 111.368 294.502 111.624 294.773C111.887 295.037 111.88 295.469 111.611 295.726L73.4589 333.162C73.3308 333.291 73.1555 333.358 72.987 333.358V333.352Z" fill="#0E3168"/>
</g>
<defs>
<clipPath id="clip0_274_3164">
<rect width="335" height="347" fill="white"/>
</clipPath>
</defs>
</svg>
