<svg width="128" height="213" viewBox="0 0 128 213" fill="none" xmlns="http://www.w3.org/2000/svg">
<g clip-path="url(#clip0_346_1587)">
<g clip-path="url(#clip1_346_1587)">
<path d="M82.9324 132.396C78.6653 141.997 71.1999 150.257 62.0208 155.6C61.2272 156.064 60.2571 155.467 60.3571 154.572L60.6678 151.784C52.0682 159.412 42.5077 165.981 32.2978 171.284C30.5717 172.18 28.5358 173.067 26.8134 171.818C26.2783 171.428 25.8793 170.885 25.622 170.279C24.9526 168.7 25.1839 166.992 25.4549 165.336C27.2455 154.427 30.7132 143.818 34.1708 133.257L29.5818 136.539C28.984 136.969 28.1837 136.462 28.3424 135.753C30.3444 126.785 35.6575 116.606 40.9079 108.936L82.9315 132.393L82.9324 132.396Z" fill="#50337F"/>
<path d="M40.9218 132.405C40.8417 132.429 40.7561 132.423 40.6748 132.384C40.5102 132.3 40.4434 132.1 40.5269 131.935L45.8435 121.405C45.927 121.24 46.1271 121.173 46.2917 121.257C46.4563 121.341 46.5231 121.542 46.4396 121.707L41.122 132.234C41.078 132.32 41.0042 132.377 40.9177 132.403L40.9218 132.405Z" fill="#0E3168"/>
<path d="M36.2663 161.454C36.1925 161.476 36.1143 161.471 36.0391 161.441C35.8709 161.368 35.7913 161.171 35.8623 161C40.8061 149.429 46.4522 138.013 52.6486 127.074C52.7404 126.914 52.9433 126.857 53.1035 126.949C53.2636 127.042 53.3208 127.245 53.2289 127.406C47.0469 138.323 41.4111 149.714 36.4776 161.261C36.4365 161.357 36.3583 161.423 36.2653 161.45L36.2663 161.454Z" fill="#0E3168"/>
<path d="M57.5227 140.616C57.4362 140.642 57.3423 140.631 57.258 140.583C57.0979 140.49 57.043 140.282 57.139 140.124L62.1321 131.578C62.2239 131.418 62.431 131.363 62.5889 131.46C62.749 131.552 62.8007 131.761 62.7079 131.918L57.7148 140.464C57.6712 140.54 57.5997 140.593 57.5227 140.616Z" fill="#0E3168"/>
<path d="M80.96 128.88L92.0646 143.934C92.9257 145.103 94.7041 144.934 95.3093 143.626C99.4638 134.678 110.907 106.658 100.119 89.7836L80.96 128.88Z" fill="#F3F1F6"/>
<path d="M94.2438 144.959C94.1091 144.999 93.9675 145.027 93.8252 145.041C93.0319 145.12 92.2718 144.783 91.7957 144.133L80.6911 129.079C80.6159 128.979 80.6042 128.846 80.6607 128.731L99.8192 89.6346C99.8735 89.5239 99.9784 89.4541 100.102 89.4487C100.222 89.441 100.338 89.5011 100.403 89.6041C105.079 96.9126 106.17 107.054 103.65 119.744C101.623 129.963 97.7476 139.181 95.617 143.769C95.3446 144.354 94.8506 144.782 94.2479 144.961L94.2438 144.959ZM81.3515 128.847L92.3342 143.738C92.6692 144.195 93.2038 144.432 93.7592 144.375C94.3082 144.32 94.7749 143.988 95.0087 143.484C98.826 135.267 110.365 107.359 100.156 90.4726L81.3538 128.843L81.3515 128.847Z" fill="#0E3168"/>
<path d="M44.3414 109.11L25.8106 108.166C24.3753 108.093 23.5211 106.502 24.2553 105.264C29.2759 96.7871 45.874 71.5453 65.7204 71.2119L44.3414 109.11Z" fill="#F3F1F6"/>
<path d="M44.4373 109.432C44.4021 109.442 44.3649 109.447 44.3258 109.444L25.795 108.5C25.0012 108.46 24.3028 108.013 23.9247 107.306C23.5477 106.603 23.562 105.772 23.9697 105.09C26.5426 100.746 31.9429 92.3477 39.1898 84.9475C48.192 75.7535 57.1159 71.0191 65.7183 70.8764C65.8401 70.8752 65.9493 70.9372 66.0117 71.0411C66.0741 71.1451 66.0742 71.2746 66.0139 71.3766L44.6381 109.274C44.5944 109.35 44.5239 109.406 44.4437 109.43L44.4373 109.432ZM58.9553 72.6247C42.2024 77.6145 28.6544 98.4849 24.5401 105.435C24.2573 105.915 24.2454 106.496 24.5115 106.991C24.7776 107.486 25.2695 107.802 25.8255 107.829L44.1512 108.764L65.1347 71.565C63.0358 71.6544 60.9716 72.0241 58.9553 72.6247Z" fill="#0E3168"/>
<path d="M82.7366 132.924C83.9621 132.293 85.0021 131.296 85.6909 130.023C95.8914 111.12 137.191 31.3631 125.269 0.0885509L125.248 0.0772441C92.9615 7.48425 50.5826 86.6628 40.7714 105.772C39.448 108.348 39.8218 111.489 41.7217 113.697C51.5304 125.103 63.8445 131.751 78.664 133.639C80.0969 133.822 81.5111 133.555 82.7398 132.923L82.7366 132.924Z" fill="#F3F1F6"/>
<path d="M124.319 36.6572C127.717 22.1819 128.711 9.11587 125.269 0.0885428L125.248 0.0772348C115.842 2.23437 105.581 10.4832 95.5178 21.5621C95.5178 21.5621 100.42 27.8719 108.877 32.0932C118.002 36.6477 124.32 36.6604 124.32 36.6604L124.319 36.6572Z" fill="#50337F"/>
<path d="M82.9853 133.161C82.8378 133.205 82.6725 133.142 82.5955 133.001C82.5053 132.838 82.5667 132.635 82.7283 132.544C83.857 131.928 84.7806 130.998 85.3943 129.86C92.2402 117.176 115.233 73.0125 123.695 37.2351C123.739 37.054 123.916 36.9452 124.099 36.9853C124.279 37.0295 124.389 37.2104 124.349 37.3906C115.868 73.247 92.8395 117.477 85.9855 130.181C85.308 131.433 84.2935 132.456 83.0507 133.135C83.0302 133.148 83.0077 133.155 82.9853 133.161Z" fill="#0E3168"/>
<path d="M40.1212 110.08C40.102 110.086 40.0827 110.092 40.0584 110.092C39.8757 110.111 39.7105 109.978 39.6898 109.792C39.5382 108.346 39.8099 106.903 40.4695 105.614C47.0407 92.8159 70.3848 48.9539 94.9083 21.8942C95.0312 21.7561 95.2453 21.7483 95.3801 21.8728C95.5181 21.9962 95.5262 22.2109 95.4023 22.3458C70.9346 49.3468 47.6233 93.1431 41.0643 105.923C40.4635 107.093 40.2169 108.41 40.3536 109.724C40.3707 109.887 40.2677 110.033 40.117 110.078L40.1212 110.08Z" fill="#0E3168"/>
<path d="M99.0768 81.6098C95.0824 89.1968 85.7086 92.0343 78.1394 87.9476C70.5703 83.8609 67.6716 74.3984 71.6661 66.8115C75.6605 59.2246 85.0343 56.3871 92.6034 60.4738C100.173 64.5605 103.071 74.0229 99.0768 81.6098Z" fill="#F3F1F6"/>
<path d="M89.9747 89.4961C85.9548 90.6934 81.6972 90.2493 77.9788 88.2405C70.2597 84.0724 67.295 74.388 71.3671 66.6519C73.3346 62.9111 76.6384 60.1763 80.6699 58.9475L80.7628 58.9198C84.7828 57.7225 89.0403 58.1666 92.7587 60.1754C100.478 64.3435 103.443 74.0278 99.3704 81.764C97.3997 85.5058 94.0991 88.2396 90.0676 89.4684L89.9747 89.4961ZM80.9554 59.5663L80.8656 59.593C77.0095 60.7661 73.8459 63.3855 71.9606 66.9688C68.0574 74.3815 70.9014 83.6607 78.2957 87.6524C81.8591 89.5743 85.934 90.0028 89.784 88.856L89.8738 88.8293C93.7331 87.6553 96.8935 85.0368 98.7788 81.4535C102.682 74.0408 99.838 64.7616 92.4437 60.7699C88.8803 58.848 84.8054 58.4195 80.9554 59.5663Z" fill="#0E3168"/>
<path d="M94.8427 79.3239C92.084 84.568 85.6043 86.5294 80.3722 83.704C75.1411 80.8817 73.1375 74.3425 75.8995 69.0975C78.6583 63.8534 85.1379 61.8919 90.37 64.7174C95.6011 67.5397 97.6047 74.0789 94.8427 79.3239Z" fill="#50337F"/>
<path d="M87.7946 121.49C87.7497 121.504 87.702 121.508 87.6513 121.502C72.001 119.237 56.9553 111.117 46.3677 99.2279C46.2461 99.0891 46.2569 98.8793 46.3942 98.7543C46.5315 98.6294 46.7417 98.6438 46.8665 98.7817C57.3497 110.555 72.2488 118.593 87.7431 120.837C87.9254 120.863 88.0534 121.035 88.0276 121.218C88.0085 121.353 87.9132 121.455 87.7914 121.491L87.7946 121.49Z" fill="#0E3168"/>
<path d="M20.4808 210.963C20.3974 210.988 20.3045 210.981 20.2244 210.935C20.062 210.847 20.0039 210.64 20.0958 210.479L35.7785 182.117C35.8693 181.954 36.0722 181.897 36.2324 181.989C36.3948 182.077 36.4529 182.284 36.361 182.444L20.6783 210.807C20.6356 210.886 20.5619 210.943 20.4817 210.967L20.4808 210.963Z" fill="#0E3168"/>
<path d="M9.02881 190.747C8.94226 190.772 8.84517 190.763 8.75998 190.711C8.6021 190.615 8.55136 190.409 8.64735 190.251L18.7392 173.502C18.8352 173.344 19.04 173.293 19.1979 173.39C19.3558 173.486 19.4065 173.692 19.3105 173.85L9.21869 190.599C9.17406 190.672 9.10575 190.724 9.02881 190.747Z" fill="#0E3168"/>
<path d="M8.14847 166.947C8.06191 166.972 7.96803 166.962 7.8838 166.913C7.72367 166.821 7.66877 166.613 7.76476 166.455L18.0448 148.768C18.1366 148.607 18.3437 148.552 18.5016 148.649C18.6617 148.741 18.7166 148.949 18.6206 149.107L8.34059 166.795C8.29693 166.871 8.2254 166.924 8.14847 166.947Z" fill="#0E3168"/>
<path d="M47.9494 195.712C47.8661 195.737 47.7732 195.73 47.6931 195.684C47.5307 195.596 47.4726 195.389 47.5644 195.228L60.4036 172.013C60.4944 171.85 60.6974 171.793 60.8575 171.885C61.0199 171.973 61.078 172.18 60.9861 172.34L48.147 195.556C48.1043 195.635 48.0305 195.692 47.9504 195.716L47.9494 195.712Z" fill="#0E3168"/>
</g>
</g>
<defs>
<clipPath id="clip0_346_1587">
<rect width="128" height="213" fill="white"/>
</clipPath>
<clipPath id="clip1_346_1587">
<rect width="166.236" height="172.259" fill="white" transform="translate(-34 47.4532) rotate(-16.5862)"/>
</clipPath>
</defs>
</svg>
